<?xml version="1.0" encoding="UTF-8" standalone="no" ?>
<!DOCTYPE svg PUBLIC "-//W3C//DTD SVG 1.1//EN" "http://www.w3.org/Graphics/SVG/1.1/DTD/svg11.dtd">
<svg xmlns="http://www.w3.org/2000/svg" xmlns:xlink="http://www.w3.org/1999/xlink" version="1.1" width="500" height="500" viewBox="0 0 500 500" xml:space="preserve">
<desc>Created with Fabric.js 3.6.3</desc>
<defs>
</defs>
<rect x="0" y="0" width="100%" height="100%" fill="#1c9aea"></rect>
<g transform="matrix(0.5 0 0 0.5 250.71 327.528)" style=""  ><path fill="#ffffff" opacity="1" d="M-189.78 32.42L-208.98 32.42L-208.98 29.84L-203.51 28.60L-177.19-36.21L-175.03-36.21L-148.81 28.50L-142.62 29.84L-142.62 32.42L-164.60 32.42L-164.60 29.84L-155.83 28.50L-164.50 6.62L-190.61 6.62L-198.97 28.50L-189.78 29.84L-189.78 32.42ZM-177.71-26.82L-189.17 3.01L-165.95 3.01L-177.71-26.82Z"/><path fill="#ffffff" opacity="1" d="M-83.39 32.42L-132.51 32.42L-132.51 29.84L-124.46 28.08L-124.46-31.36L-132.51-33.11L-132.51-35.69L-108.98-35.69L-108.98-33.11L-118.27-31.36L-118.27 28.81L-90.30 28.81L-85.45 10.54L-83.39 10.54L-83.39 32.42Z"/><path fill="#ffffff" opacity="1" d="M-40.04 33.45L-40.04 33.45Q-47.27 33.45-52.99 30.82Q-58.72 28.19-62.02 22.56Q-65.33 16.94-65.33 7.86L-65.33 7.86L-65.33-31.36L-73.58-33.11L-73.58-35.69L-50.88-35.69L-50.88-33.11L-59.13-31.36L-59.13 6.41Q-59.13 15.08-56.61 20.04Q-54.08 24.99-49.33 27.05Q-44.58 29.12-38.18 29.12L-38.18 29.12Q-32.82 29.12-28.38 27.00Q-23.94 24.89-21.36 20.40Q-18.78 15.91-18.78 8.99L-18.78 8.99L-18.78-31.56L-29.10-33.11L-29.10-35.69L-6.60-35.69L-6.60-33.11L-14.76-31.46L-14.76 7.86Q-14.76 16.94-18.06 22.56Q-21.36 28.19-27.09 30.82Q-32.82 33.45-40.04 33.45Z"/><path fill="#ffffff" opacity="1" d="M28.38 32.42L6.81 32.42L6.81 29.84L14.86 28.08L14.86-31.36L6.81-33.11L6.81-35.69L20.33-35.69L62.33 21.27L62.33-31.36L53.46-33.11L53.46-35.69L74.30-35.69L74.30-33.11L66.25-31.36L66.25 32.94L63.98 32.94L18.99-27.02L18.99 27.78L28.38 29.84L28.38 32.42Z"/><path fill="#ffffff" opacity="1" d="M119.51 33.45L119.51 33.45Q110.22 33.45 102.94 28.91Q95.67 24.37 91.44 16.42Q87.20 8.48 87.20-1.64L87.20-1.64Q87.20-11.75 91.44-19.70Q95.67-27.64 102.94-32.18Q110.22-36.72 119.51-36.72L119.51-36.72Q128.90-36.72 136.17-32.18Q143.45-27.64 147.68-19.70Q151.91-11.75 151.91-1.64L151.91-1.64Q151.91 8.48 147.68 16.42Q143.45 24.37 136.17 28.91Q128.90 33.45 119.51 33.45ZM121.67 30.36L121.67 30.36Q128.69 30.36 134.11 26.79Q139.53 23.23 142.52 16.78Q145.51 10.33 145.51 1.56L145.51 1.56Q145.51-9.07 141.80-17.01Q138.08-24.96 131.79-29.35Q125.49-33.73 117.75-33.73L117.75-33.73Q110.73-33.73 105.26-30.22Q99.79-26.71 96.70-20.26Q93.60-13.81 93.60-5.04L93.60-5.04Q93.60 5.59 97.37 13.59Q101.14 21.58 107.48 25.97Q113.83 30.36 121.67 30.36Z"/><path fill="#ffffff" opacity="1" d="M185.35 33.45L185.35 33.45Q179.36 33.45 175.13 32.21Q170.90 30.97 166.36 28.70L166.36 28.70L165.33 12.81L167.18 12.81L173.07 25.92Q176.58 28.50 179.88 29.37Q183.18 30.25 186.69 30.25L186.69 30.25Q193.60 30.25 197.11 26.59Q200.62 22.92 200.62 16.32L200.62 16.32Q200.62 11.37 198.30 8.58Q195.98 5.79 191.69 3.63Q187.41 1.46 181.63-1.43L181.63-1.43Q177.09-3.70 174.05-5.97Q171.00-8.24 169.45-11.29Q167.91-14.33 167.91-18.87L167.91-18.87Q167.91-23.31 170.64-27.39Q173.38-31.46 177.71-34.09Q182.04-36.72 187.00-36.72L187.00-36.72Q191.54-36.72 195.31-35.59Q199.07-34.45 203.10-32.39L203.10-32.39L204.13-16.91L202.27-16.91L197.73-29.19Q195.15-31.56 192.67-32.60Q190.20-33.63 186.90-33.63L186.90-33.63Q180.60-33.63 177.19-30.02Q173.79-26.40 173.79-21.24L173.79-21.24Q173.79-17.32 175.39-14.64Q176.99-11.96 180.29-9.79Q183.59-7.62 188.65-5.15L188.65-5.15Q194.84-2.15 198.87 0.58Q202.89 3.32 204.80 6.83Q206.71 10.33 206.71 15.70L206.71 15.70Q206.71 20.86 203.56 24.83Q200.41 28.81 195.56 31.13Q190.71 33.45 185.35 33.45Z"/></g><g transform="matrix(2.121692906311785 0 0 2.121692906311785 250.49999999999994 202.06505214429865)"  >
<path style="stroke: none; stroke-width: 0; stroke-dasharray: none; stroke-linecap: butt; stroke-dashoffset: 0; stroke-linejoin: miter; stroke-miterlimit: 4; fill: rgb(255,255,255); fill-rule: nonzero; opacity: 1;"  transform=" translate(-31.999647721533872, -31.995521919443267)" d="M 63.22 23.6 a 2 2 0 0 1 -1.29 1.87 l -3.32 1.27 v 14.9 a 4.93 4.93 0 0 1 2.94 4.51 V 51 a 2 2 0 0 1 -2 2 H 53.68 a 2 2 0 0 1 -2 -2 V 46.15 a 4.91 4.91 0 0 1 2.93 -4.5 V 28.27 l -4.25 1.62 l -4 1.53 L 35.57 35.55 a 10 10 0 0 1 -7.14 0 L 17.64 31.42 l -4 -1.53 L 2.07 25.47 a 2 2 0 0 1 0 -3.74 L 28.43 11.65 a 10 10 0 0 1 7.14 0 L 61.93 21.73 A 2 2 0 0 1 63.22 23.6 Z M 35.57 39.55 a 10 10 0 0 1 -7.14 0 L 17.64 35.42 l -4 -1.53 v 8.36 a 2 2 0 0 0 1 1.74 A 38.12 38.12 0 0 0 32 48.27 A 38.12 38.12 0 0 0 49.36 44 a 2 2 0 0 0 1 -1.74 V 33.89 l -4 1.53 Z" stroke-linecap="round" />
</g>
</svg>