<?xml version="1.0" encoding="UTF-8" standalone="no"?>
<!DOCTYPE svg PUBLIC "-//W3C//DTD SVG 1.1//EN" "http://www.w3.org/Graphics/SVG/1.1/DTD/svg11.dtd">
<svg xmlns="http://www.w3.org/2000/svg" xmlns:xlink="http://www.w3.org/1999/xlink" version="1.1" width="500" height="200" viewBox="0 0 500 200" xml:space="preserve">
<desc>Created with Fabric.js 3.6.3</desc>
<defs>
</defs>
<g transform="matrix(1.631463046940588 0 0 1.631463046940588 90.84813697108306 94.68474180233105)">
<path style="stroke: none; stroke-width: 0; stroke-dasharray: none; stroke-linecap: butt; stroke-dashoffset: 0; stroke-linejoin: miter; stroke-miterlimit: 4; fill: rgb(0,67,88); fill-rule: nonzero; opacity: 1;" transform=" translate(-47.501, -47.499491738831985)" d="M 67.886 11.575 l 0.484 -0.838 l 7.937 4.583 l -0.484 0.837 Z M 66.8 6.826 l 13.674 7.9 a 1.928 1.928 0 0 0 2.626 -0.7 L 84.4 11.776 a 1.927 1.927 0 0 0 -0.7 -2.625 L 70.019 1.256 a 1.926 1.926 0 0 0 -2.625 0.7 L 66.1 4.2 A 1.927 1.927 0 0 0 66.8 6.826 Z m 2.1 40.236 l 1.229 3.029 a 3.374 3.374 0 0 0 4.383 1.853 h 0 a 3.376 3.376 0 0 0 1.854 -4.383 l -1.15 -2.836 a 8.814 8.814 0 0 1 -5.993 2.345 C 69.114 47.07 69.007 47.066 68.9 47.062 Z M 45.873 50.145 l 7.555 4.361 a 1.818 1.818 0 0 0 2.476 -0.663 l 0.857 -1.484 L 46.066 46.184 l -0.857 1.484 A 1.819 1.819 0 0 0 45.873 50.145 Z m 36.1 -6.5 l -4.043 0.86 l 0.844 2.081 a 5.955 5.955 0 0 1 -0.025 4.54 l 4.031 -0.782 L 84.3 58.169 a 8.016 8.016 0 0 1 -6.311 9.348 L 65.238 69.989 V 74.8 H 56.444 V 78.55 l 22.828 -4.426 A 14.749 14.749 0 0 0 90.909 56.888 l -1.61 -8.3 A 6.225 6.225 0 0 0 81.977 43.641 Z M 62.634 68.448 a 2.988 2.988 0 0 0 -2.979 -2.979 H 26.576 A 2.988 2.988 0 0 0 23.6 68.448 V 72.2 H 62.634 Z m 6.585 10.278 a 8.029 8.029 0 0 0 -1.753 5.011 a 7.922 7.922 0 0 0 0.056 0.929 H 83.568 a 8.049 8.049 0 0 0 -4.025 -7.942 Z m 0 -46.752 a 6.246 6.246 0 1 0 6.246 6.246 A 6.258 6.258 0 0 0 69.222 31.974 Z M 53.84 84.666 V 74.8 H 32.391 v 9.862 Z M 45.854 39.2 l 14.5 -25.108 a 3.35 3.35 0 0 1 4.564 -1.223 l 11.278 6.511 a 3.351 3.351 0 0 1 1.222 4.564 l -3.808 6.6 A 8.846 8.846 0 0 0 64.76 45.858 l -1.842 3.191 a 3.351 3.351 0 0 1 -4.563 1.223 L 47.077 43.76 A 3.349 3.349 0 0 1 45.854 39.2 Z M 61.61 26.273 a 1.3 1.3 0 0 0 1.779 -0.477 L 65.3 22.482 a 1.3 1.3 0 0 0 -2.255 -1.3 l -1.913 3.314 A 1.3 1.3 0 0 0 61.61 26.273 Z m -5.224 9.049 a 1.3 1.3 0 0 0 1.778 -0.477 l 2.259 -3.911 a 1.3 1.3 0 0 0 -2.256 -1.3 l -2.258 3.911 A 1.3 1.3 0 0 0 56.386 35.322 Z m -2.855 4.945 l 1.825 1.055 a 1.3 1.3 0 0 0 1.3 -2.256 l -1.825 -1.054 a 1.3 1.3 0 1 0 -1.3 2.255 Z m 36.742 47 H 21.057 a 2.988 2.988 0 0 0 -2.979 2.979 V 94 H 93.252 V 90.249 A 2.988 2.988 0 0 0 90.273 87.27 Z M 44.594 55.6 l 4.747 2.74 a 1.2 1.2 0 0 0 1.628 -0.436 l 0.785 -1.359 l -6.811 -3.932 l -0.785 1.359 A 1.2 1.2 0 0 0 44.594 55.6 Z M 17.363 32.555 a 0.982 0.982 0 1 0 0.982 0.982 A 0.982 0.982 0 0 0 17.363 32.555 Z M 21.2 45.331 a 19.45 19.45 0 1 1 19.45 -19.45 a 19.265 19.265 0 0 1 -5.364 13.413 l 3.365 7.768 a 1.3 1.3 0 0 1 -1.566 1.765 l -12.65 -3.765 A 19.688 19.688 0 0 1 21.2 45.331 Z M 28.69 33.239 a 1.3 1.3 0 0 0 -1.653 0.812 a 1.68 1.68 0 0 1 -1.912 1.1 a 1.3 1.3 0 0 0 -0.5 2.555 A 4.281 4.281 0 0 0 29.5 34.891 A 1.3 1.3 0 0 0 28.69 33.239 Z M 25.529 19.712 a 1.3 1.3 0 1 0 -1.841 1.841 l 0.64 0.641 a 4.7 4.7 0 0 0 -0.4 0.958 h -0.905 a 1.3 1.3 0 0 0 0 2.6 h 0.905 a 4.705 4.705 0 0 0 0.4 0.959 l -0.64 0.64 A 1.3 1.3 0 0 0 25.529 29.2 l 0.64 -0.641 a 4.65 4.65 0 0 0 0.959 0.4 v 0.905 a 1.3 1.3 0 0 0 2.6 0 v -0.905 a 4.673 4.673 0 0 0 0.959 -0.4 l 0.64 0.64 a 1.3 1.3 0 1 0 1.841 -1.841 l -0.64 -0.64 a 4.705 4.705 0 0 0 0.4 -0.959 h 0.905 a 1.3 1.3 0 0 0 0 -2.6 H 32.93 a 4.7 4.7 0 0 0 -0.4 -0.958 l 0.64 -0.641 a 1.3 1.3 0 1 0 -1.841 -1.841 l -0.64 0.64 a 4.669 4.669 0 0 0 -0.959 -0.4 v -0.9 a 1.3 1.3 0 0 0 -2.6 0 v 0.9 a 4.647 4.647 0 0 0 -0.959 0.4 Z M 19.255 13.5 a 1.3 1.3 0 0 0 1.529 1.025 a 1.685 1.685 0 0 1 1.913 1.1 a 1.3 1.3 0 1 0 2.464 -0.84 a 4.3 4.3 0 0 0 -4.881 -2.818 A 1.3 1.3 0 0 0 19.255 13.5 Z M 10.442 29.758 a 1.179 1.179 0 0 1 -0.4 -1.494 a 1.3 1.3 0 1 0 -2.337 -1.148 a 3.791 3.791 0 0 0 1.288 4.805 a 1.3 1.3 0 1 0 1.449 -2.163 Z M 12 24.9 a 1.3 1.3 0 0 0 0.921 -0.381 l 0.236 -0.236 c 0.056 0.025 0.113 0.048 0.17 0.07 v 0.334 a 1.3 1.3 0 1 0 2.6 0 v -0.334 c 0.058 -0.022 0.115 -0.045 0.171 -0.07 l 0.236 0.236 a 1.3 1.3 0 0 0 1.841 -1.842 l -0.236 -0.235 c 0.025 -0.056 0.048 -0.113 0.07 -0.171 h 0.334 a 1.3 1.3 0 0 0 0 -2.6 H 18.01 c -0.022 -0.057 -0.045 -0.115 -0.07 -0.171 l 0.236 -0.235 a 1.3 1.3 0 0 0 -1.841 -1.842 l -0.236 0.236 c -0.056 -0.025 -0.113 -0.047 -0.171 -0.07 v -0.334 a 1.3 1.3 0 0 0 -2.6 0 v 0.334 c -0.057 0.023 -0.114 0.045 -0.17 0.07 l -0.236 -0.235 a 1.3 1.3 0 1 0 -1.841 1.841 l 0.235 0.235 c -0.025 0.056 -0.047 0.114 -0.069 0.171 h -0.334 a 1.3 1.3 0 0 0 0 2.6 h 0.334 c 0.022 0.058 0.044 0.115 0.069 0.171 l -0.235 0.235 A 1.3 1.3 0 0 0 12 24.9 Z m 8.866 12.133 a 1.3 1.3 0 0 0 0 -1.841 l -0.219 -0.219 c 0.02 -0.046 0.038 -0.092 0.056 -0.138 h 0.311 a 1.3 1.3 0 0 0 0 -2.6 H 20.7 c -0.018 -0.047 -0.036 -0.093 -0.056 -0.138 l 0.219 -0.219 a 1.3 1.3 0 0 0 -1.841 -1.842 l -0.219 0.219 c -0.045 -0.02 -0.092 -0.038 -0.138 -0.056 v -0.311 a 1.3 1.3 0 1 0 -2.6 0 V 30.2 c -0.047 0.018 -0.093 0.036 -0.139 0.056 l -0.219 -0.219 a 1.3 1.3 0 1 0 -1.841 1.842 l 0.219 0.219 c -0.02 0.045 -0.038 0.091 -0.056 0.138 h -0.311 a 1.3 1.3 0 0 0 0 2.6 h 0.311 c 0.018 0.046 0.036 0.092 0.056 0.138 l -0.219 0.219 A 1.3 1.3 0 1 0 15.7 37.037 l 0.219 -0.219 c 0.045 0.02 0.091 0.038 0.138 0.056 v 0.311 a 1.3 1.3 0 0 0 2.6 0 v -0.311 c 0.046 -0.018 0.093 -0.036 0.138 -0.056 l 0.219 0.219 a 1.3 1.3 0 0 0 1.841 0 Z M 14.626 22 A 1.025 1.025 0 1 0 13.6 20.973 A 1.027 1.027 0 0 0 14.626 22 Z m 13.8 4.537 a 2.081 2.081 0 1 0 -2.081 -2.081 A 2.083 2.083 0 0 0 28.43 26.535 Z" stroke-linecap="round"/>
</g>
<g transform="matrix(0.35714285714285715 0 0 0.35714285714285715 359.9724436474771 98.52825924432747)" style=""><path fill="#004358" opacity="1" d="M-473.15-48.75L-473.15-48.75Q-473.15-49.23-472.67-49.23Q-472.19-49.23-471.87-49.39L-471.87-49.39Q-471.87-48.91-472.35-48.91Q-472.83-48.91-473.15-48.75ZM-468.67 34.40L-468.67 34.40Q-469.95 34.40-470.27 34.08Q-470.59 33.76-471.87 33.76L-471.87 33.76Q-470.91 32.80-469.79 32.80L-469.79 32.80Q-468.67 32.80-468.67 34.40ZM-471.23 36.48L-471.23 36.48Q-472.19 37.12-473.15 37.12L-473.15 37.12L-473.15 33.76Q-472.35 34.40-471.79 34.80Q-471.23 35.20-471.23 36.48ZM-448.53 50.07L-448.53 50.07Q-448.53 49.59-448.05 49.59Q-447.57 49.59-447.25 49.43L-447.25 49.43Q-447.25 49.91-447.65 49.91Q-448.05 49.91-448.53 50.07ZM-469.95-56.58L-469.95-56.58Q-469.31-56.74-469.31-57.06L-469.31-57.06Q-469.31-57.38-469.71-57.78Q-470.11-58.18-470.11-58.66L-470.11-58.66Q-470.11-59.14-469.31-59.14L-469.31-59.14Q-468.51-59.14-468.19-58.90Q-467.87-58.66-467.39-58.50L-467.39-58.50Q-467.07-58.50-467.07-58.82L-467.07-58.82Q-467.07-59.14-467.23-59.46Q-467.39-59.78-467.39-60.42L-467.39-60.42Q-466.28-60.42-466.28-60.74L-466.28-60.74Q-466.28-61.06-466.36-61.22Q-466.44-61.38-466.44-61.70L-466.44-61.70Q-466.44-62.34-464.84-62.34L-464.84-62.34Q-463.72-62.34-463.72-61.54L-463.72-61.54Q-463.72-61.38-463.80-61.30Q-463.88-61.22-463.88-61.06L-463.88-61.06Q-463.88-60.42-463.40-60.42L-463.40-60.42Q-463.24-60.42-462.44-60.82Q-461.64-61.22-460.68-61.62Q-459.72-62.02-459.00-62.34Q-458.28-62.66-457.96-62.66L-457.96-62.66L-457.80-62.66Q-457.80-63.14-458.28-63.14L-458.28-63.14Q-456.20-63.78-454.52-63.86Q-452.84-63.94-451.32-63.94Q-449.81-63.94-448.21-64.02Q-446.61-64.10-444.53-64.42L-444.53-64.42Q-444.53-64.10-444.61-63.62Q-444.69-63.14-444.69-62.66L-444.69-62.66Q-444.69-61.70-444.21-61.70L-444.21-61.70Q-443.41-61.70-443.41-62.74Q-443.41-63.78-443.09-63.78L-443.09-63.78Q-442.61-63.78-442.05-63.38Q-441.49-62.98-441.17-62.98L-441.17-62.98Q-440.69-62.98-440.69-64.42L-440.69-64.42Q-438.77-64.42-438.77-62.34L-438.77-62.34Q-437.65-62.66-437.65-63.46L-437.65-63.46Q-437.65-63.78-438.13-63.78L-438.13-63.78Q-437.17-64.26-435.89-64.26L-435.89-64.26Q-434.14-64.26-432.30-63.78Q-430.46-63.30-428.70-63.30L-428.70-63.30Q-427.58-63.30-426.30-63.78L-426.30-63.78Q-425.98-63.30-425.82-62.90Q-425.66-62.50-425.66-61.70L-425.66-61.70Q-425.18-61.70-425.18-62.34L-425.18-62.34Q-425.18-62.82-425.66-63.14L-425.66-63.14Q-422.62-64.42-417.83-64.42L-417.83-64.42Q-416.07-64.42-414.31-64.34Q-412.55-64.26-410.63-64.26L-410.63-64.26Q-409.51-64.26-408.39-64.26Q-407.27-64.26-406.15-64.42L-406.15-64.42L-406.15-44.27Q-406.95-43.95-409.03-43.71Q-411.11-43.47-413.51-43.47L-413.51-43.47Q-415.27-43.47-416.71-43.63Q-418.15-43.79-419.26-44.27L-419.26-44.27Q-420.70-43.95-422.46-42.99Q-424.22-42.03-425.18-42.03L-425.18-42.03Q-425.50-42.03-425.66-42.19L-425.66-42.19Q-426.14-42.03-426.54-41.39Q-426.94-40.75-427.34-40.03Q-427.74-39.31-427.98-38.75Q-428.22-38.19-428.22-38.19L-428.22-38.19Q-428.54-38.19-428.70-38.67Q-428.86-39.15-429.02-39.63L-429.02-39.63Q-430.14-39.15-430.14-38.83L-430.14-38.83Q-430.14-38.51-429.58-37.95Q-429.02-37.39-429.02-36.43L-429.02-36.43Q-429.98-35.64-429.82-33.72Q-429.66-31.80-430.94-31.16L-430.94-31.16Q-430.62-30.84-430.38-29.88Q-430.14-28.92-430.14-27.80L-430.14-27.80Q-430.14-26.04-431.58-26.04L-431.58-26.04Q-431.58-25.56-431.10-25.56Q-430.62-25.56-430.30-25.40L-430.30-25.40Q-430.46-22.20-430.46-19.73Q-430.46-17.25-430.46-14.85L-430.46-14.85Q-430.46-12.45-430.46-10.05Q-430.46-7.65-430.30-4.61L-430.30-4.61Q-430.62-3.34-431.02-2.38Q-431.42-1.42-431.42-0.30L-431.42-0.30Q-431.42 0.34-430.94 1.30L-430.94 1.30L-432.22 1.30Q-432.06 1.94-431.50 1.94Q-430.94 1.94-430.30 1.94L-430.30 1.94Q-430.46 2.58-431.74 2.58L-431.74 2.58L-432.86 2.58Q-432.38 4.02-432.22 5.54Q-432.06 7.06-430.30 7.22L-430.30 7.22Q-430.78 8.02-430.78 8.02L-430.78 8.02Q-430.78 8.34-430.54 8.66Q-430.30 8.98-430.30 9.78L-430.30 9.78Q-430.94 9.62-431.18 9.14Q-431.42 8.66-432.22 8.50L-432.22 8.50Q-432.38 8.82-432.38 9.30L-432.38 9.30Q-432.38 10.42-431.34 10.58Q-430.30 10.74-430.30 11.22L-430.30 11.22Q-430.30 12.17-431.26 12.17Q-432.22 12.17-432.22 12.97L-432.22 12.97Q-432.06 13.61-431.50 13.61Q-430.94 13.61-430.30 13.61L-430.30 13.61Q-430.46 14.41-430.46 15.69L-430.46 15.69Q-430.46 16.49-430.38 17.05Q-430.30 17.61-430.30 18.25L-430.30 18.25Q-430.30 19.53-430.70 20.49Q-431.10 21.45-432.86 22.09L-432.86 22.09Q-432.54 22.73-432.30 23.45Q-432.06 24.17-431.10 24.17L-431.10 24.17Q-430.62 24.17-430.30 24.01L-430.30 24.01Q-430.30 25.45-430.46 26.41Q-430.62 27.37-432.22 27.37L-432.22 27.37Q-431.58 28.16-430.62 28.40Q-429.66 28.64-429.66 29.92L-429.66 29.92Q-428.38 30.24-427.10 30.24Q-425.82 30.24-424.54 30.24L-424.54 30.24Q-421.34 30.24-417.83 30.00Q-414.31 29.76-410.63 29.76L-410.63 29.76Q-409.35 29.76-408.31 29.76Q-407.27 29.76-406.15 29.92L-406.15 29.92Q-406.79 36.00-406.55 40.96Q-406.31 45.91-407.43 50.07L-407.43 50.07Q-407.91 50.07-408.55 50.15Q-409.19 50.23-409.83 50.23L-409.83 50.23Q-411.43 50.23-411.43 49.75L-411.43 49.75Q-411.43 48.95-411.03 48.63Q-410.63 48.31-410.63 47.67L-410.63 47.67Q-410.63 46.87-411.35 46.87Q-412.07 46.87-412.55 46.87L-412.55 46.87Q-413.51 46.87-413.51 47.67L-413.51 47.67Q-413.51 48.47-413.43 49.11Q-413.35 49.75-413.35 50.07L-413.35 50.07Q-413.83 50.07-414.39 49.99Q-414.95 49.91-415.43 49.91L-415.43 49.91Q-417.03 49.91-418.79 50.07Q-420.54 50.23-422.14 50.23L-422.14 50.23Q-423.74 50.23-425.02 49.91Q-426.30 49.59-426.94 48.79L-426.94 48.79Q-427.74 49.59-428.86 49.83Q-429.98 50.07-431.42 50.07L-431.42 50.07Q-432.22 50.07-432.86 49.99Q-433.50 49.91-433.50 49.11L-433.50 49.11Q-433.50 48.63-433.18 48.15Q-432.86 47.67-432.86 46.87L-432.86 46.87Q-434.30 46.87-434.94 47.03Q-435.57 47.19-436.05 47.19L-436.05 47.19Q-436.85 47.19-437.49 46.87L-437.49 46.87Q-437.97 47.19-437.97 47.35L-437.97 47.35Q-437.97 47.99-436.69 48.39Q-435.41 48.79-435.41 49.75L-435.41 49.75Q-435.41 50.07-435.81 50.15Q-436.21 50.23-436.37 50.23L-436.37 50.23Q-437.33 50.23-437.81 49.59Q-438.29 48.95-438.61 48.95L-438.61 48.95Q-438.93 48.95-439.41 50.07L-439.41 50.07Q-440.05 49.91-440.05 49.43L-440.05 49.43Q-440.05 48.79-438.77 48.79L-438.77 48.79Q-439.25 46.55-440.69 46.55L-440.69 46.55Q-441.49 46.55-442.29 46.87Q-443.09 47.19-443.89 47.51L-443.89 47.51L-443.89 46.23Q-444.69 47.03-445.97 47.11Q-447.25 47.19-447.25 48.79L-447.25 48.79Q-448.69 48.31-449.49 48.31L-449.49 48.31Q-449.97 48.31-450.53 48.55Q-451.08 48.79-451.88 48.79L-451.88 48.79Q-453.00 48.79-453.24 47.99Q-453.48 47.19-454.28 46.87L-454.28 46.87Q-455.40 47.99-456.68 47.99L-456.68 47.99Q-457.32 47.99-457.72 47.43Q-458.12 46.87-458.60 46.87L-458.60 46.87Q-460.36 46.87-461.08 47.99Q-461.80 49.11-462.76 50.07L-462.76 50.07Q-463.24 50.07-463.24 49.75L-463.24 49.75Q-463.24 49.11-462.12 48.79L-462.12 48.79Q-462.44 48.31-462.60 48.31L-462.60 48.31Q-462.92 48.31-463.48 49.19Q-464.04 50.07-464.68 50.07L-464.68 50.07Q-465.64 50.07-466.36 50.15Q-467.07 50.23-467.71 50.23L-467.71 50.23Q-468.83 50.23-469.39 49.83Q-469.95 49.43-469.95 47.83L-469.95 47.83Q-469.95 46.71-469.31 46.71L-469.31 46.71Q-468.67 46.71-468.67 47.51L-468.67 47.51Q-468.67 48.15-468.91 48.55Q-469.15 48.95-469.31 49.43L-469.31 49.43Q-467.55 49.43-467.55 48.71Q-467.55 47.99-466.76 47.99L-466.76 47.99Q-465.96 47.99-466.04 48.79Q-466.12 49.59-465.32 49.59L-465.32 49.59Q-464.68 49.59-464.68 49.11L-464.68 49.11Q-464.68 48.47-466.04 47.27Q-467.39 46.07-468.91 44.71Q-470.43 43.36-471.79 41.84Q-473.15 40.32-473.15 39.04L-473.15 39.04Q-472.03 39.04-471.63 39.36Q-471.23 39.68-471.23 40.96L-471.23 40.96Q-470.91 40.64-470.91 39.84L-470.91 39.84L-470.91 38.72Q-470.91 37.76-469.95 37.12L-469.95 37.12Q-469.95 36.64-470.27 36.64L-470.27 36.64Q-470.59 36.64-470.91 37.20Q-471.23 37.76-471.39 37.76L-471.39 37.76Q-471.55 37.76-471.55 37.44L-471.55 37.44Q-471.55 36.96-470.99 36.08Q-470.43 35.20-469.79 35.20L-469.79 35.20Q-469.47 35.20-469.31 35.84L-469.31 35.84Q-467.87 34.56-466.92 32.88Q-465.96 31.20-464.68 29.92L-464.68 29.92Q-463.72 30.08-463.64 30.56Q-463.56 31.04-463.56 31.60Q-463.56 32.16-463.40 32.56Q-463.24 32.96-462.12 33.12L-462.12 33.12Q-461.48 32.96-461.48 32.48L-461.48 32.48Q-461.48 32.16-461.80 31.68Q-462.12 31.20-462.12 30.72L-462.12 30.72Q-462.12 29.92-461.00 29.92L-461.00 29.92Q-460.20 29.92-459.72 30.16Q-459.24 30.40-458.92 30.40L-458.92 30.40Q-458.44 30.40-458.28 29.28L-458.28 29.28Q-457.64 29.44-457.64 30.00Q-457.64 30.56-457.64 31.20L-457.64 31.20Q-457.16 31.20-457.00 30.64Q-456.84 30.08-456.60 29.52Q-456.36 28.96-455.88 28.48Q-455.40 28.00-454.28 28.00L-454.28 28.00Q-451.40 25.13-450.77 22.73Q-450.13 20.33-449.17 17.61L-449.17 17.61Q-449.65 12.01-449.81 6.26Q-449.97 0.50-449.97-5.41L-449.97-5.41Q-449.97-12.13-449.81-18.85Q-449.65-25.56-449.65-32.28L-449.65-32.28Q-449.65-35.00-449.73-37.55Q-449.81-40.11-449.81-42.83L-449.81-42.83Q-456.36-43.95-462.60-43.95L-462.60-43.95Q-464.84-43.95-466.92-43.87Q-468.99-43.79-471.23-43.63L-471.23-43.63Q-471.55-44.59-472.19-44.59L-472.19-44.59Q-472.51-44.59-472.51-44.27L-472.51-44.27Q-472.83-44.27-472.83-44.59L-472.83-44.59Q-472.83-45.39-471.79-46.11Q-470.75-46.83-469.95-46.83L-469.95-46.83Q-470.27-48.11-470.99-48.83Q-471.71-49.55-471.71-50.51L-471.71-50.51Q-471.71-50.99-471.23-51.95L-471.23-51.95Q-472.03-51.47-472.51-50.03L-472.51-50.03Q-473.31-50.35-473.31-52.11L-473.31-52.11Q-473.31-53.06-473.23-54.02Q-473.15-54.98-473.15-55.94L-473.15-55.94Q-472.51-55.46-472.03-54.82Q-471.55-54.18-470.59-54.02L-470.59-54.02Q-470.75-55.30-471.31-56.74Q-471.87-58.18-471.87-59.14L-471.87-59.14Q-471.87-60.42-470.59-60.42L-470.59-60.42Q-471.07-59.14-471.07-58.34L-471.07-58.34Q-471.07-57.22-469.95-56.58ZM-430.94 26.73L-430.94 26.73Q-430.94 25.61-431.74 25.61L-431.74 25.61Q-432.22 25.61-432.22 26.09L-432.22 26.09Q-432.22 26.73-430.94 26.73ZM-455.08 28.80L-455.56 29.28Q-455.88 29.92-455.88 29.76L-455.88 29.76L-456.04 29.92L-455.08 28.80ZM-472.51-53.38L-472.51-53.38Q-472.19-53.22-471.87-52.98Q-471.55-52.74-471.23-52.74L-471.23-52.74Q-470.75-52.74-470.59-53.38L-470.59-53.38Q-470.91-53.38-471.31-53.62Q-471.71-53.86-472.03-53.86L-472.03-53.86Q-472.35-53.86-472.51-53.38ZM-463.40-44.91L-463.40-44.91Q-461.48-44.91-461.48-46.35L-461.48-46.35Q-461.48-46.83-461.96-46.83L-461.96-46.83Q-462.92-46.83-463.00-46.03Q-463.08-45.23-463.40-44.91ZM-421.18 31.20L-421.18 31.20Q-421.50 31.36-421.98 31.36Q-422.46 31.36-422.46 31.84L-422.46 31.84Q-422.14 31.68-421.66 31.68Q-421.18 31.68-421.18 31.20ZM-422.46 48.15L-422.46 48.15Q-422.46 47.67-422.78 47.67L-422.78 47.67Q-423.10 47.67-423.10 48.15L-423.10 48.15Q-423.10 48.47-422.78 48.47L-422.78 48.47Q-422.62 48.47-422.46 48.15Z"/><path fill="#004358" opacity="1" d="M-308.13 19.37L-308.13 19.37Q-308.13 18.89-307.65 18.89Q-307.17 18.89-306.86 18.73L-306.86 18.73Q-306.86 19.21-307.33 19.21Q-307.81 19.21-308.13 19.37ZM-303.66 26.57L-303.66 26.57Q-303.50 26.09-303.34 26.09L-303.34 26.09Q-303.18 26.09-302.94 26.33Q-302.70 26.57-302.38 26.57L-302.38 26.57Q-302.70 27.21-303.02 27.21L-303.02 27.21Q-303.66 27.21-303.66 26.57ZM-310.85 33.60L-310.85 33.60Q-310.85 33.28-310.53 33.28L-310.53 33.28Q-310.21 33.28-310.21 33.92L-310.21 33.92Q-310.21 34.24-310.29 34.32Q-310.37 34.40-310.37 34.56L-310.37 34.56L-310.53 34.72Q-310.85 34.72-310.85 33.60ZM-297.74-33.24L-297.74-33.24Q-299.02-33.08-300.22-33.00Q-301.42-32.92-302.70-32.92L-302.70-32.92Q-306.38-32.92-310.69-33.08Q-315.01-33.24-320.61-33.24L-320.61-33.24Q-322.05-35.32-323.56-37.23Q-325.08-39.15-327.08-40.59Q-329.08-42.03-331.80-42.91Q-334.52-43.79-338.04-43.79L-338.04-43.79Q-340.27-43.79-342.27-42.83Q-344.27-41.87-346.11-40.35Q-347.95-38.83-349.55-36.99Q-351.15-35.16-352.43-33.24L-352.43-33.24Q-353.71-31.32-354.51-28.84Q-355.30-26.36-357.54-25.56L-357.54-25.56Q-357.54-20.76-358.58-16.21Q-359.62-11.65-359.62-5.41L-359.62-5.41Q-359.62-0.46-358.42 4.50Q-357.22 9.46-355.14 13.85Q-353.07 18.25-350.19 21.69Q-347.31 25.13-343.95 27.21L-343.95 27.21Q-342.03 28.48-338.76 29.28Q-335.48 30.08-331.64 30.40L-331.64 30.40Q-331.16 30.40-331.16 29.76L-331.16 29.76Q-331.16 29.12-331.64 29.12L-331.64 29.12Q-328.44 27.69-326.28 25.85Q-324.12 24.01-321.89 21.29L-321.89 21.29Q-321.09 21.45-321.09 22.57L-321.09 22.57Q-321.09 23.05-321.25 23.61Q-321.41 24.17-321.41 24.65L-321.41 24.65Q-321.41 24.97-321.33 25.05Q-321.25 25.13-321.25 25.29L-321.25 25.29Q-320.45 24.49-319.41 24.09Q-318.37 23.69-317.89 22.57L-317.89 22.57Q-318.69 22.09-318.69 22.09L-318.69 22.09Q-319.33 22.09-319.41 22.65Q-319.49 23.21-320.61 23.21L-320.61 23.21Q-320.61 21.93-320.93 21.29Q-321.25 20.65-321.25 20.49L-321.25 20.49Q-321.25 19.69-320.13 19.69L-320.13 19.69Q-319.81 19.69-319.57 19.77Q-319.33 19.85-319.01 19.85L-319.01 19.85L-318.37 19.85L-318.69 19.85Q-318.85 19.85-319.33 19.37L-319.33 19.37Q-318.21 18.73-315.81 18.73L-315.81 18.73Q-314.53 18.73-313.25 18.81Q-311.97 18.89-310.69 18.89L-310.69 18.89Q-309.41 18.89-308.77 18.73L-308.77 18.73Q-308.77 18.89-308.85 18.97Q-308.93 19.05-308.93 19.21L-308.93 19.21Q-308.93 19.69-308.45 19.85Q-307.97 20.01-307.49 20.01L-307.49 20.01Q-307.81 20.81-307.97 21.37Q-308.13 21.93-308.13 22.25L-308.13 22.25Q-308.13 22.89-307.33 22.89L-307.33 22.89Q-307.02 22.89-306.62 22.89Q-306.22 22.89-305.58 22.57L-305.58 22.57Q-305.58 23.21-305.82 23.53Q-306.06 23.85-306.06 24.17L-306.06 24.17Q-306.06 24.49-305.58 24.49L-305.58 24.49Q-306.22 25.93-307.49 25.93L-307.49 25.93Q-307.17 26.57-307.17 26.73L-307.17 26.73Q-307.17 27.53-307.73 28.64Q-308.29 29.76-309.09 30.80Q-309.89 31.84-310.85 32.80Q-311.81 33.76-312.77 34.24L-312.77 34.24Q-311.97 35.36-311.49 35.76Q-311.01 36.16-310.85 36.96L-310.85 36.96Q-310.85 38.40-312.05 39.60Q-313.25 40.80-314.85 41.92Q-316.45 43.04-318.05 44.07Q-319.65 45.11-320.61 46.07L-320.61 46.07Q-323.32 46.07-324.44 47.03Q-325.56 47.99-327.64 48.63L-327.64 48.63Q-328.12 48.31-328.84 48.31Q-329.56 48.31-330.12 48.23Q-330.68 48.15-331.16 47.83Q-331.64 47.51-331.64 46.71L-331.64 46.71Q-332.76 47.83-333.56 47.83L-333.56 47.83Q-334.36 47.83-334.84 46.71L-334.84 46.71Q-335.32 47.03-335.32 47.35L-335.32 47.35Q-335.32 47.51-335.24 47.67Q-335.16 47.83-335.16 48.15L-335.16 48.15Q-335.16 48.31-335.24 48.87Q-335.32 49.43-335.96 49.43L-335.96 49.43Q-336.44 49.43-336.76 49.11Q-337.08 48.79-337.24 48.79L-337.24 48.79Q-337.40 48.79-337.40 49.91L-337.40 49.91Q-338.84 49.91-339.79 49.51Q-340.75 49.11-342.03 49.11L-342.03 49.11Q-342.35 49.11-342.67 49.19Q-342.99 49.27-343.31 49.27L-343.31 49.27Q-345.07 48.47-346.43 47.19Q-347.79 45.91-349.87 45.43L-349.87 45.43L-349.87 43.36Q-350.35 43.99-352.43 43.99L-352.43 43.99Q-351.79 45.27-351.15 45.43L-351.15 45.43Q-351.63 46.07-351.95 46.07L-351.95 46.07Q-352.43 46.07-352.83 45.35Q-353.23 44.63-353.23 43.68L-353.23 43.68Q-353.23 43.04-353.07 42.72L-353.07 42.72Q-353.87 43.36-354.99 43.36L-354.99 43.36Q-354.99 41.76-355.46 41.76L-355.46 41.76Q-355.62 41.92-355.62 42.08L-355.62 42.08Q-357.06 41.44-357.06 39.04L-357.06 39.04Q-357.06 38.72-356.98 38.32Q-356.90 37.92-356.90 37.60L-356.90 37.60Q-357.22 37.76-357.46 38.40Q-357.70 39.04-357.86 39.68Q-358.02 40.32-358.18 40.88Q-358.34 41.44-358.66 41.44L-358.66 41.44Q-359.30 41.44-359.30 41.12L-359.30 41.12Q-359.30 40.80-359.14 40.48Q-358.98 40.16-358.98 39.84L-358.98 39.84Q-358.98 39.36-359.38 38.24Q-359.78 37.12-360.34 35.92Q-360.90 34.72-361.46 33.84Q-362.02 32.96-362.18 32.96L-362.18 32.96Q-362.82 32.96-362.98 33.28Q-363.14 33.60-363.30 34.00Q-363.46 34.40-363.70 34.72Q-363.94 35.04-364.74 35.04L-364.74 35.04Q-364.74 33.92-365.30 33.84Q-365.86 33.76-366.66 33.60L-366.66 33.60Q-367.62 31.68-368.98 29.84Q-370.34 28.00-371.61 26.09Q-372.89 24.17-373.77 22.09Q-374.65 20.01-374.65 17.77L-374.65 17.77Q-374.65 16.81-374.49 16.17L-374.49 16.17Q-376.09 15.05-376.89 13.05Q-377.69 11.06-378.09 8.66Q-378.49 6.26-378.81 3.86Q-379.13 1.46-379.77-0.78L-379.77-0.78Q-379.77-13.09-378.09-22.04Q-376.41-31.00-372.57-39.15L-372.57-39.15Q-372.25-38.99-372.01-38.75Q-371.77-38.51-371.29-38.51L-371.29-38.51Q-371.29-38.83-371.37-38.99Q-371.45-39.15-371.45-39.47L-371.45-39.47Q-371.45-41.07-370.74-41.95Q-370.02-42.83-369.14-43.55Q-368.26-44.27-367.46-45.15Q-366.66-46.03-366.66-47.63L-366.66-47.63Q-365.22-46.99-364.74-45.71L-364.74-45.71Q-363.78-46.35-363.06-47.15Q-362.34-47.95-360.90-48.27L-360.90-48.27Q-361.38-49.23-361.38-49.87L-361.38-49.87Q-361.38-50.67-360.98-51.07Q-360.58-51.47-360.26-52.74L-360.26-52.74Q-360.74-52.74-360.74-52.26Q-360.74-51.79-360.90-51.47L-360.90-51.47Q-361.70-51.79-361.70-52.42L-361.70-52.42Q-361.70-54.02-359.54-55.94Q-357.38-57.86-354.03-59.62Q-350.67-61.38-346.75-62.58Q-342.83-63.78-339.47-63.94L-339.47-63.94Q-339.47-63.46-339.79-63.30Q-340.11-63.14-340.11-62.50L-340.11-62.50Q-337.56-62.50-336.20-63.22Q-334.84-63.94-334.36-63.94L-334.36-63.94Q-333.08-63.94-332.76-63.14Q-332.44-62.34-331.64-61.86L-331.64-61.86Q-330.84-62.18-330.52-62.74Q-330.20-63.30-329.40-63.30L-329.40-63.30Q-328.60-63.30-328.52-62.58Q-328.44-61.86-328.12-61.86L-328.12-61.86Q-327.32-61.86-327.08-62.26Q-326.84-62.66-326.04-62.66L-326.04-62.66Q-325.24-62.66-324.60-62.10Q-323.96-61.54-323.16-61.22L-323.16-61.22Q-317.73-59.14-314.05-55.46Q-310.37-51.79-306.22-48.27L-306.22-48.27Q-305.26-46.19-304.06-44.51Q-302.86-42.83-301.66-41.15Q-300.46-39.47-299.42-37.55Q-298.38-35.64-297.74-33.24ZM-325.08-61.22L-325.08-61.22Q-325.08-61.06-325.16-60.98Q-325.24-60.90-325.24-60.74L-325.24-60.74Q-325.24-59.94-324.44-59.78Q-323.64-59.62-323.16-59.30L-323.16-59.30Q-323.16-60.42-323.48-60.82Q-323.80-61.22-325.08-61.22ZM-365.38 32.32L-365.38 32.32Q-365.38 32.16-365.30 32.08Q-365.22 32.00-365.22 31.84L-365.22 31.84Q-365.22 31.20-366.02 30.72L-366.02 30.72Q-366.50 30.56-366.82 30.56L-366.82 30.56Q-366.66 30.88-366.34 30.88Q-366.02 30.88-366.02 31.68L-366.02 31.68Q-366.02 32.80-365.70 32.80L-365.70 32.80Q-365.54 32.80-365.54 32.64L-365.54 32.64Q-365.54 32.48-365.38 32.32ZM-318.05 39.68L-318.53 40.16L-319.17 40.80L-318.05 39.68ZM-317.89 42.08L-317.89 42.08Q-318.37 42.24-318.77 42.24Q-319.17 42.24-319.33 42.72L-319.33 42.72Q-318.85 42.56-318.45 42.56Q-318.05 42.56-317.89 42.08Z"/><path fill="#004358" opacity="1" d="M-268.32-21.24L-268.16-21.24Q-267.68-21.40-267.68-21.72L-267.68-21.72Q-267.68-22.20-268.80-22.76Q-269.92-23.32-270.08-23.96L-270.08-23.96Q-270.24-25.24-270.24-26.36Q-270.24-27.48-270.24-28.76L-270.24-28.76Q-270.24-42.67-264.16-51.15L-264.16-51.15Q-262.88-51.15-262.32-50.99Q-261.76-50.83-261.60-50.83L-261.60-50.83Q-261.12-50.83-261.20-51.63Q-261.28-52.42-260.32-52.42L-260.32-52.42Q-259.68-52.42-259.68-52.26L-259.68-52.26Q-259.68-51.95-260.00-51.55Q-260.32-51.15-260.32-50.67L-260.32-50.67L-260.32-50.51Q-256.97-51.31-255.37-53.70Q-253.77-56.10-253.13-59.62L-253.13-59.62Q-251.85-59.62-251.53-60.02Q-251.21-60.42-251.21-61.54L-251.21-61.54Q-249.77-61.70-248.73-61.78Q-247.69-61.86-246.41-61.86L-246.41-61.86Q-245.61-61.86-244.49-61.78Q-243.37-61.70-242.10-61.54L-242.10-61.54Q-242.10-62.34-242.34-62.50Q-242.58-62.66-243.37-62.98L-243.37-62.98Q-242.26-64.10-240.82-64.10L-240.82-64.10Q-239.86-64.10-238.90-63.62L-238.90-63.62Q-239.86-63.30-240.10-62.82Q-240.34-62.34-240.34-61.86Q-240.34-61.38-240.42-60.90Q-240.50-60.42-241.46-60.26L-241.46-60.26Q-240.66-59.14-239.06-59.14L-239.06-59.14Q-238.26-59.14-237.54-59.22Q-236.82-59.30-236.02-59.30L-236.02-59.30Q-234.42-59.30-233.62-58.98L-233.62-58.98Q-232.34-59.62-231.70-60.66Q-231.06-61.70-231.06-63.62L-231.06-63.62Q-229.78-63.62-228.82-63.46Q-227.86-63.30-227.70-62.18L-227.70-62.18Q-226.27-63.94-224.67-63.94L-224.67-63.94Q-224.19-63.94-223.23-63.62L-223.23-63.62Q-223.87-62.98-223.87-62.02Q-223.87-61.06-224.35-61.06L-224.35-61.06Q-224.67-61.06-225.15-61.54L-225.15-61.54Q-225.15-60.42-224.51-60.42L-224.51-60.42Q-224.03-60.42-223.39-60.90Q-222.75-61.38-222.27-61.38L-222.27-61.38Q-221.95-61.38-221.95-59.62L-221.95-59.62Q-220.83-60.42-219.87-60.42L-219.87-60.42Q-219.55-60.42-219.31-60.34Q-219.07-60.26-218.75-60.26L-218.75-60.26Q-218.11-60.42-218.03-60.98Q-217.95-61.54-217.95-62.18Q-217.95-62.82-217.87-63.46Q-217.79-64.10-217.31-64.26L-217.31-64.26L-199.24-64.26L-199.24-44.11Q-203.88-43.79-208.84-43.55Q-213.79-43.31-218.91-43.31L-218.91-43.31Q-224.03-43.31-229.14-43.55Q-234.26-43.79-238.90-44.11L-238.90-44.11Q-245.45-43.47-247.85-38.67Q-250.25-33.88-250.25-26.84L-250.25-26.84Q-250.25-25.56-250.17-24.12Q-250.09-22.68-249.93-21.24L-249.93-21.24Q-248.65-20.44-246.73-20.13Q-244.81-19.81-242.58-19.81L-242.58-19.81Q-240.34-19.81-237.94-19.97Q-235.54-20.13-233.30-20.13L-233.30-20.13Q-232.34-20.13-231.46-19.97Q-230.58-19.81-229.78-19.81L-229.78-19.81Q-228.98-19.81-228.66-20.20Q-228.34-20.60-227.54-20.60L-227.54-20.60Q-227.07-20.60-226.83-20.28Q-226.59-19.97-226.27-19.97L-226.27-19.97Q-225.95-19.97-225.47-20.20Q-224.99-20.44-224.51-20.44L-224.51-20.44Q-224.03-20.44-223.87-17.33Q-223.71-14.21-223.71-10.53L-223.71-10.53Q-223.71-7.17-223.79-4.14Q-223.87-1.10-223.87 0.18L-223.87 0.18L-249.29 0.18Q-249.77 4.66-249.93 9.38Q-250.09 14.09-250.09 18.89L-250.09 18.89Q-250.09 24.49-249.93 29.92Q-249.77 35.36-249.77 40.96L-249.77 40.96Q-249.77 43.20-249.85 45.27Q-249.93 47.35-249.93 49.59L-249.93 49.59Q-253.77 50.23-258.65 50.23Q-263.52 50.23-270.08 50.23L-270.08 50.23L-270.08 44.31Q-268.32 44.31-268.32 45.43L-268.32 45.43Q-268.32 45.91-268.80 46.39L-268.80 46.39Q-267.36 46.39-267.36 43.99L-267.36 43.99Q-267.36 42.40-268.80 42.40L-268.80 42.40Q-268.64 41.92-268.08 41.92Q-267.52 41.92-267.52 41.12L-267.52 41.12Q-267.52 40.80-267.84 40.80L-267.84 40.80Q-268.16 40.80-268.48 40.96Q-268.80 41.12-269.12 41.12L-269.12 41.12Q-270.08 41.12-270.16 39.92Q-270.24 38.72-270.24 37.92L-270.24 37.92Q-270.24 35.04-269.52 32.48Q-268.80 29.92-268.80 27.69L-268.80 27.69Q-268.80 27.05-269.36 26.97Q-269.92 26.89-270.08 26.25L-270.08 26.25L-270.08 18.41Q-269.60 19.37-269.12 19.37L-269.12 19.37Q-268.48 19.37-268.16 17.13L-268.16 17.13Q-268.16 16.65-268.48 16.65L-268.48 16.65Q-269.12 16.65-269.44 17.77L-269.44 17.77Q-270.24 13.61-270.40 7.54Q-270.56 1.46-270.56-5.73L-270.56-5.73Q-270.56-10.37-269.92-14.21Q-269.28-18.05-266.72-18.69L-266.72-18.69Q-268.00-19.17-268.48-20.28Q-268.96-21.40-270.08-21.88L-270.08-21.88Q-270.08-22.52-269.76-22.52L-269.76-22.52Q-269.44-22.52-269.04-21.88Q-268.64-21.24-268.32-21.24L-268.32-21.24ZM-249.93-60.26L-249.93-60.26Q-249.93-60.74-250.25-60.74L-250.25-60.74Q-250.57-60.74-250.57-60.26L-250.57-60.26Q-250.57-59.94-250.25-59.94L-250.25-59.94Q-249.93-59.94-249.93-60.26ZM-227.70-60.26L-227.70-60.26Q-228.02-59.62-228.02-59.78L-228.02-59.78L-228.18-59.62Q-228.18-59.46-227.62-59.94Q-227.07-60.42-227.07-60.58L-227.07-60.58Q-227.07-60.58-227.70-60.26Z"/><path fill="#004358" opacity="1" d="M-172.70-48.75L-172.70-48.75Q-172.70-49.23-172.22-49.23Q-171.74-49.23-171.42-49.39L-171.42-49.39Q-171.42-48.91-171.90-48.91Q-172.38-48.91-172.70-48.75ZM-168.22 34.40L-168.22 34.40Q-169.50 34.40-169.82 34.08Q-170.14 33.76-171.42 33.76L-171.42 33.76Q-170.46 32.80-169.34 32.80L-169.34 32.80Q-168.22 32.80-168.22 34.40ZM-170.78 36.48L-170.78 36.48Q-171.74 37.12-172.70 37.12L-172.70 37.12L-172.70 33.76Q-171.90 34.40-171.34 34.80Q-170.78 35.20-170.78 36.48ZM-148.07 50.07L-148.07 50.07Q-148.07 49.59-147.59 49.59Q-147.12 49.59-146.80 49.43L-146.80 49.43Q-146.80 49.91-147.20 49.91Q-147.59 49.91-148.07 50.07ZM-169.50-56.58L-169.50-56.58Q-168.86-56.74-168.86-57.06L-168.86-57.06Q-168.86-57.38-169.26-57.78Q-169.66-58.18-169.66-58.66L-169.66-58.66Q-169.66-59.14-168.86-59.14L-168.86-59.14Q-168.06-59.14-167.74-58.90Q-167.42-58.66-166.94-58.50L-166.94-58.50Q-166.62-58.50-166.62-58.82L-166.62-58.82Q-166.62-59.14-166.78-59.46Q-166.94-59.78-166.94-60.42L-166.94-60.42Q-165.82-60.42-165.82-60.74L-165.82-60.74Q-165.82-61.06-165.90-61.22Q-165.98-61.38-165.98-61.70L-165.98-61.70Q-165.98-62.34-164.38-62.34L-164.38-62.34Q-163.26-62.34-163.26-61.54L-163.26-61.54Q-163.26-61.38-163.34-61.30Q-163.42-61.22-163.42-61.06L-163.42-61.06Q-163.42-60.42-162.95-60.42L-162.95-60.42Q-162.79-60.42-161.99-60.82Q-161.19-61.22-160.23-61.62Q-159.27-62.02-158.55-62.34Q-157.83-62.66-157.51-62.66L-157.51-62.66L-157.35-62.66Q-157.35-63.14-157.83-63.14L-157.83-63.14Q-155.75-63.78-154.07-63.86Q-152.39-63.94-150.87-63.94Q-149.35-63.94-147.75-64.02Q-146.16-64.10-144.08-64.42L-144.08-64.42Q-144.08-64.10-144.16-63.62Q-144.24-63.14-144.24-62.66L-144.24-62.66Q-144.24-61.70-143.76-61.70L-143.76-61.70Q-142.96-61.70-142.96-62.74Q-142.96-63.78-142.64-63.78L-142.64-63.78Q-142.16-63.78-141.60-63.38Q-141.04-62.98-140.72-62.98L-140.72-62.98Q-140.24-62.98-140.24-64.42L-140.24-64.42Q-138.32-64.42-138.32-62.34L-138.32-62.34Q-137.20-62.66-137.20-63.46L-137.20-63.46Q-137.20-63.78-137.68-63.78L-137.68-63.78Q-136.72-64.26-135.44-64.26L-135.44-64.26Q-133.68-64.26-131.84-63.78Q-130.01-63.30-128.25-63.30L-128.25-63.30Q-127.13-63.30-125.85-63.78L-125.85-63.78Q-125.53-63.30-125.37-62.90Q-125.21-62.50-125.21-61.70L-125.21-61.70Q-124.73-61.70-124.73-62.34L-124.73-62.34Q-124.73-62.82-125.21-63.14L-125.21-63.14Q-122.17-64.42-117.37-64.42L-117.37-64.42Q-115.61-64.42-113.86-64.34Q-112.10-64.26-110.18-64.26L-110.18-64.26Q-109.06-64.26-107.94-64.26Q-106.82-64.26-105.70-64.42L-105.70-64.42L-105.70-44.27Q-106.50-43.95-108.58-43.71Q-110.66-43.47-113.06-43.47L-113.06-43.47Q-114.82-43.47-116.25-43.63Q-117.69-43.79-118.81-44.27L-118.81-44.27Q-120.25-43.95-122.01-42.99Q-123.77-42.03-124.73-42.03L-124.73-42.03Q-125.05-42.03-125.21-42.19L-125.21-42.19Q-125.69-42.03-126.09-41.39Q-126.49-40.75-126.89-40.03Q-127.29-39.31-127.53-38.75Q-127.77-38.19-127.77-38.19L-127.77-38.19Q-128.09-38.19-128.25-38.67Q-128.41-39.15-128.57-39.63L-128.57-39.63Q-129.69-39.15-129.69-38.83L-129.69-38.83Q-129.69-38.51-129.13-37.95Q-128.57-37.39-128.57-36.43L-128.57-36.43Q-129.53-35.64-129.37-33.72Q-129.21-31.80-130.49-31.16L-130.49-31.16Q-130.17-30.84-129.93-29.88Q-129.69-28.92-129.69-27.80L-129.69-27.80Q-129.69-26.04-131.13-26.04L-131.13-26.04Q-131.13-25.56-130.65-25.56Q-130.17-25.56-129.85-25.40L-129.85-25.40Q-130.01-22.20-130.01-19.73Q-130.01-17.25-130.01-14.85L-130.01-14.85Q-130.01-12.45-130.01-10.05Q-130.01-7.65-129.85-4.61L-129.85-4.61Q-130.17-3.34-130.57-2.38Q-130.97-1.42-130.97-0.30L-130.97-0.30Q-130.97 0.34-130.49 1.30L-130.49 1.30L-131.76 1.30Q-131.60 1.94-131.05 1.94Q-130.49 1.94-129.85 1.94L-129.85 1.94Q-130.01 2.58-131.28 2.58L-131.28 2.58L-132.40 2.58Q-131.92 4.02-131.76 5.54Q-131.60 7.06-129.85 7.22L-129.85 7.22Q-130.33 8.02-130.33 8.02L-130.33 8.02Q-130.33 8.34-130.09 8.66Q-129.85 8.98-129.85 9.78L-129.85 9.78Q-130.49 9.62-130.73 9.14Q-130.97 8.66-131.76 8.50L-131.76 8.50Q-131.92 8.82-131.92 9.30L-131.92 9.30Q-131.92 10.42-130.89 10.58Q-129.85 10.74-129.85 11.22L-129.85 11.22Q-129.85 12.17-130.81 12.17Q-131.76 12.17-131.76 12.97L-131.76 12.97Q-131.60 13.61-131.05 13.61Q-130.49 13.61-129.85 13.61L-129.85 13.61Q-130.01 14.41-130.01 15.69L-130.01 15.69Q-130.01 16.49-129.93 17.05Q-129.85 17.61-129.85 18.25L-129.85 18.25Q-129.85 19.53-130.25 20.49Q-130.65 21.45-132.40 22.09L-132.40 22.09Q-132.08 22.73-131.84 23.45Q-131.60 24.17-130.65 24.17L-130.65 24.17Q-130.17 24.17-129.85 24.01L-129.85 24.01Q-129.85 25.45-130.01 26.41Q-130.17 27.37-131.76 27.37L-131.76 27.37Q-131.13 28.16-130.17 28.40Q-129.21 28.64-129.21 29.92L-129.21 29.92Q-127.93 30.24-126.65 30.24Q-125.37 30.24-124.09 30.24L-124.09 30.24Q-120.89 30.24-117.37 30.00Q-113.86 29.76-110.18 29.76L-110.18 29.76Q-108.90 29.76-107.86 29.76Q-106.82 29.76-105.70 29.92L-105.70 29.92Q-106.34 36.00-106.10 40.96Q-105.86 45.91-106.98 50.07L-106.98 50.07Q-107.46 50.07-108.10 50.15Q-108.74 50.23-109.38 50.23L-109.38 50.23Q-110.98 50.23-110.98 49.75L-110.98 49.75Q-110.98 48.95-110.58 48.63Q-110.18 48.31-110.18 47.67L-110.18 47.67Q-110.18 46.87-110.90 46.87Q-111.62 46.87-112.10 46.87L-112.10 46.87Q-113.06 46.87-113.06 47.67L-113.06 47.67Q-113.06 48.47-112.98 49.11Q-112.90 49.75-112.90 50.07L-112.90 50.07Q-113.38 50.07-113.94 49.99Q-114.50 49.91-114.98 49.91L-114.98 49.91Q-116.57 49.91-118.33 50.07Q-120.09 50.23-121.69 50.23L-121.69 50.23Q-123.29 50.23-124.57 49.91Q-125.85 49.59-126.49 48.79L-126.49 48.79Q-127.29 49.59-128.41 49.83Q-129.53 50.07-130.97 50.07L-130.97 50.07Q-131.76 50.07-132.40 49.99Q-133.04 49.91-133.04 49.11L-133.04 49.11Q-133.04 48.63-132.72 48.15Q-132.40 47.67-132.40 46.87L-132.40 46.87Q-133.84 46.87-134.48 47.03Q-135.12 47.19-135.60 47.19L-135.60 47.19Q-136.40 47.19-137.04 46.87L-137.04 46.87Q-137.52 47.19-137.52 47.35L-137.52 47.35Q-137.52 47.99-136.24 48.39Q-134.96 48.79-134.96 49.75L-134.96 49.75Q-134.96 50.07-135.36 50.15Q-135.76 50.23-135.92 50.23L-135.92 50.23Q-136.88 50.23-137.36 49.59Q-137.84 48.95-138.16 48.95L-138.16 48.95Q-138.48 48.95-138.96 50.07L-138.96 50.07Q-139.60 49.91-139.60 49.43L-139.60 49.43Q-139.60 48.79-138.32 48.79L-138.32 48.79Q-138.80 46.55-140.24 46.55L-140.24 46.55Q-141.04 46.55-141.84 46.87Q-142.64 47.19-143.44 47.51L-143.44 47.51L-143.44 46.23Q-144.24 47.03-145.52 47.11Q-146.80 47.19-146.80 48.79L-146.80 48.79Q-148.23 48.31-149.03 48.31L-149.03 48.31Q-149.51 48.31-150.07 48.55Q-150.63 48.79-151.43 48.79L-151.43 48.79Q-152.55 48.79-152.79 47.99Q-153.03 47.19-153.83 46.87L-153.83 46.87Q-154.95 47.99-156.23 47.99L-156.23 47.99Q-156.87 47.99-157.27 47.43Q-157.67 46.87-158.15 46.87L-158.15 46.87Q-159.91 46.87-160.63 47.99Q-161.35 49.11-162.31 50.07L-162.31 50.07Q-162.79 50.07-162.79 49.75L-162.79 49.75Q-162.79 49.11-161.67 48.79L-161.67 48.79Q-161.99 48.31-162.15 48.31L-162.15 48.31Q-162.47 48.31-163.03 49.19Q-163.58 50.07-164.22 50.07L-164.22 50.07Q-165.18 50.07-165.90 50.15Q-166.62 50.23-167.26 50.23L-167.26 50.23Q-168.38 50.23-168.94 49.83Q-169.50 49.43-169.50 47.83L-169.50 47.83Q-169.50 46.71-168.86 46.71L-168.86 46.71Q-168.22 46.71-168.22 47.51L-168.22 47.51Q-168.22 48.15-168.46 48.55Q-168.70 48.95-168.86 49.43L-168.86 49.43Q-167.10 49.43-167.10 48.71Q-167.10 47.99-166.30 47.99L-166.30 47.99Q-165.50 47.99-165.58 48.79Q-165.66 49.59-164.86 49.59L-164.86 49.59Q-164.22 49.59-164.22 49.11L-164.22 49.11Q-164.22 48.47-165.58 47.27Q-166.94 46.07-168.46 44.71Q-169.98 43.36-171.34 41.84Q-172.70 40.32-172.70 39.04L-172.70 39.04Q-171.58 39.04-171.18 39.36Q-170.78 39.68-170.78 40.96L-170.78 40.96Q-170.46 40.64-170.46 39.84L-170.46 39.84L-170.46 38.72Q-170.46 37.76-169.50 37.12L-169.50 37.12Q-169.50 36.64-169.82 36.64L-169.82 36.64Q-170.14 36.64-170.46 37.20Q-170.78 37.76-170.94 37.76L-170.94 37.76Q-171.10 37.76-171.10 37.44L-171.10 37.44Q-171.10 36.96-170.54 36.08Q-169.98 35.20-169.34 35.20L-169.34 35.20Q-169.02 35.20-168.86 35.84L-168.86 35.84Q-167.42 34.56-166.46 32.88Q-165.50 31.20-164.22 29.92L-164.22 29.92Q-163.26 30.08-163.19 30.56Q-163.11 31.04-163.11 31.60Q-163.11 32.16-162.95 32.56Q-162.79 32.96-161.67 33.12L-161.67 33.12Q-161.03 32.96-161.03 32.48L-161.03 32.48Q-161.03 32.16-161.35 31.68Q-161.67 31.20-161.67 30.72L-161.67 30.72Q-161.67 29.92-160.55 29.92L-160.55 29.92Q-159.75 29.92-159.27 30.16Q-158.79 30.40-158.47 30.40L-158.47 30.40Q-157.99 30.40-157.83 29.28L-157.83 29.28Q-157.19 29.44-157.19 30.00Q-157.19 30.56-157.19 31.20L-157.19 31.20Q-156.71 31.20-156.55 30.64Q-156.39 30.08-156.15 29.52Q-155.91 28.96-155.43 28.48Q-154.95 28.00-153.83 28.00L-153.83 28.00Q-150.95 25.13-150.31 22.73Q-149.67 20.33-148.71 17.61L-148.71 17.61Q-149.19 12.01-149.35 6.26Q-149.51 0.50-149.51-5.41L-149.51-5.41Q-149.51-12.13-149.35-18.85Q-149.19-25.56-149.19-32.28L-149.19-32.28Q-149.19-35.00-149.27-37.55Q-149.35-40.11-149.35-42.83L-149.35-42.83Q-155.91-43.95-162.15-43.95L-162.15-43.95Q-164.38-43.95-166.46-43.87Q-168.54-43.79-170.78-43.63L-170.78-43.63Q-171.10-44.59-171.74-44.59L-171.74-44.59Q-172.06-44.59-172.06-44.27L-172.06-44.27Q-172.38-44.27-172.38-44.59L-172.38-44.59Q-172.38-45.39-171.34-46.11Q-170.30-46.83-169.50-46.83L-169.50-46.83Q-169.82-48.11-170.54-48.83Q-171.26-49.55-171.26-50.51L-171.26-50.51Q-171.26-50.99-170.78-51.95L-170.78-51.95Q-171.58-51.47-172.06-50.03L-172.06-50.03Q-172.86-50.35-172.86-52.11L-172.86-52.11Q-172.86-53.06-172.78-54.02Q-172.70-54.98-172.70-55.94L-172.70-55.94Q-172.06-55.46-171.58-54.82Q-171.10-54.18-170.14-54.02L-170.14-54.02Q-170.30-55.30-170.86-56.74Q-171.42-58.18-171.42-59.14L-171.42-59.14Q-171.42-60.42-170.14-60.42L-170.14-60.42Q-170.62-59.14-170.62-58.34L-170.62-58.34Q-170.62-57.22-169.50-56.58ZM-130.49 26.73L-130.49 26.73Q-130.49 25.61-131.28 25.61L-131.28 25.61Q-131.76 25.61-131.76 26.09L-131.76 26.09Q-131.76 26.73-130.49 26.73ZM-154.63 28.80L-155.11 29.28Q-155.43 29.92-155.43 29.76L-155.43 29.76L-155.59 29.92L-154.63 28.80ZM-172.06-53.38L-172.06-53.38Q-171.74-53.22-171.42-52.98Q-171.10-52.74-170.78-52.74L-170.78-52.74Q-170.30-52.74-170.14-53.38L-170.14-53.38Q-170.46-53.38-170.86-53.62Q-171.26-53.86-171.58-53.86L-171.58-53.86Q-171.90-53.86-172.06-53.38ZM-162.95-44.91L-162.95-44.91Q-161.03-44.91-161.03-46.35L-161.03-46.35Q-161.03-46.83-161.51-46.83L-161.51-46.83Q-162.47-46.83-162.55-46.03Q-162.63-45.23-162.95-44.91ZM-120.73 31.20L-120.73 31.20Q-121.05 31.36-121.53 31.36Q-122.01 31.36-122.01 31.84L-122.01 31.84Q-121.69 31.68-121.21 31.68Q-120.73 31.68-120.73 31.20ZM-122.01 48.15L-122.01 48.15Q-122.01 47.67-122.33 47.67L-122.33 47.67Q-122.65 47.67-122.65 48.15L-122.65 48.15Q-122.65 48.47-122.33 48.47L-122.33 48.47Q-122.17 48.47-122.01 48.15Z"/><path fill="#004358" opacity="1" d="M-6.88-0.46L-6.88-0.46Q-6.88-0.78-6.56-0.78L-6.56-0.78Q-6.24-0.78-6.24 0.18L-6.24 0.18Q-6.56 0.66-6.56 0.66L-6.56 0.66Q-6.88 0.66-6.88-0.46ZM-32.31 37.92L-32.31 37.92Q-32.15 37.44-31.75 37.44Q-31.35 37.44-30.87 37.28L-30.87 37.28Q-31.03 37.76-31.43 37.76Q-31.83 37.76-32.31 37.92ZM-72.60 47.67L-72.60 47.67Q-73.08 47.51-73.08 47.19L-73.08 47.19Q-73.08 46.87-72.84 46.47Q-72.60 46.07-72.60 45.75L-72.60 45.75Q-71.96 45.91-71.96 46.39L-71.96 46.39Q-71.96 46.71-72.20 47.03Q-72.44 47.35-72.60 47.67ZM-77.08-50.51L-77.08-50.51Q-77.24-50.83-77.24-51.47L-77.24-51.47Q-77.24-52.42-76.84-52.98Q-76.44-53.54-76.44-54.50L-76.44-54.50Q-75.32-54.02-75.32-53.06L-75.32-53.06Q-75.32-52.58-75.48-52.03Q-75.64-51.47-75.64-50.99L-75.64-50.99Q-75.64-49.87-74.52-49.23L-74.52-49.23Q-73.72-50.03-73.72-51.79L-73.72-51.79Q-73.72-53.38-74.28-54.90Q-74.84-56.42-75.16-57.70L-75.16-57.70Q-72.76-60.26-69.96-62.26Q-67.17-64.26-62.21-64.26L-62.21-64.26Q-55.17-62.82-51.10-56.58Q-47.02-50.35-45.26-41.39L-45.26-41.39Q-43.02-38.35-41.74-34.52Q-40.46-30.68-38.70-27.16L-38.70-27.16Q-35.82-19.49-32.71-12.37Q-29.59-5.25-26.39 2.10L-26.39 2.10Q-25.91 0.50-25.75-1.34Q-25.59-3.18-25.59-5.25L-25.59-5.25Q-25.59-7.81-25.75-10.37Q-25.91-12.93-25.91-15.33L-25.91-15.33Q-25.91-15.97-25.91-17.33Q-25.91-18.69-25.59-18.69L-25.59-18.69Q-25.11-18.69-25.11-17.89L-25.11-17.89L-25.11-17.09Q-25.11-16.45-24.63-16.45L-24.63-16.45Q-23.51-16.45-22.55-19.97L-22.55-19.97Q-23.35-21.40-23.67-23.32Q-23.99-25.24-25.75-25.88L-25.75-25.88Q-25.59-29.56-25.59-33.32Q-25.59-37.07-25.59-41.07L-25.59-41.07Q-25.59-46.35-25.67-52.03Q-25.75-57.70-25.75-64.26L-25.75-64.26Q-24.31-63.78-22.55-63.78L-22.55-63.78Q-20.31-63.78-18.00-64.10Q-15.68-64.42-13.12-64.42L-13.12-64.42Q-12.16-64.42-11.36-64.34Q-10.56-64.26-9.76-64.26L-9.76-64.26Q-9.12-64.26-8.64-63.54Q-8.16-62.82-7.68-62.82L-7.68-62.82Q-7.36-62.82-6.88-63.62L-6.88-63.62Q-6.56-63.46-6.56-63.14L-6.56-63.14Q-6.56-62.50-7.52-62.18L-7.52-62.18Q-6.56-61.70-6.32-60.98Q-6.08-60.26-6.08-59.30L-6.08-59.30Q-6.08-58.66-6.16-57.94Q-6.24-57.22-6.24-56.42L-6.24-56.42Q-6.24-54.98-5.60-53.86L-5.60-53.86Q-5.76-49.71-5.92-46.03Q-6.08-42.35-6.08-38.51L-6.08-38.51Q-6.08-33.72-5.60-27.80L-5.60-27.80Q-5.76-27.80-5.84-27.72Q-5.92-27.64-6.08-27.64L-6.08-27.64Q-6.56-27.64-6.64-28.12Q-6.72-28.60-6.88-29.08L-6.88-29.08Q-7.84-29.08-7.84-27.16L-7.84-27.16Q-7.84-25.88-7.44-24.68Q-7.04-23.48-6.24-23.16L-6.24-23.16Q-7.20-22.68-7.28-21.40Q-7.36-20.13-8.16-19.33L-8.16-19.33Q-8.16-17.89-7.36-17.33Q-6.56-16.77-6.24-15.49L-6.24-15.49Q-6.24-12.45-8.16-11.49L-8.16-11.49Q-8.16-11.17-7.60-10.77Q-7.04-10.37-6.56-10.37L-6.56-10.37Q-6.24-10.37-6.24-10.85L-6.24-10.85Q-5.76-10.85-5.76-10.37L-5.76-10.37Q-5.76-9.89-6.24-9.01Q-6.72-8.13-6.88-7.65L-6.88-7.65Q-8.48-7.97-8.32-7.97L-8.32-7.97Q-8.64-7.81-8.96-7.49L-8.96-7.49Q-9.60-6.85-9.60-6.21L-9.60-6.21Q-9.60-5.41-9.04-5.25Q-8.48-5.09-7.92-5.09Q-7.36-5.09-6.80-4.85Q-6.24-4.61-6.24-3.98L-6.24-3.98L-6.88-2.38Q-8.00-2.38-8.00-2.70L-8.00-2.70Q-8.00-3.02-7.84-3.26Q-7.68-3.50-7.68-3.82L-7.68-3.82Q-7.68-3.98-8.16-4.45L-8.16-4.45Q-8.48-1.90-8.64-0.06Q-8.80 1.78-8.80 4.02L-8.80 4.02Q-8.80 5.62-8.56 6.26Q-8.32 6.90-7.92 7.22Q-7.52 7.54-7.12 7.78Q-6.72 8.02-6.24 8.66L-6.24 8.66Q-6.72 9.94-6.72 10.58L-6.72 10.58Q-6.72 11.70-6.32 12.33Q-5.92 12.97-5.92 14.09L-5.92 14.09Q-5.92 14.57-6.24 15.85L-6.24 15.85Q-7.04 15.85-7.04 15.21L-7.04 15.21Q-7.04 14.57-6.72 14.01Q-6.40 13.45-6.24 13.13L-6.24 13.13Q-8.32 14.73-8.80 17.13L-8.80 17.13Q-8.80 17.93-8.48 17.93L-8.48 17.93Q-8.16 17.93-7.60 17.45Q-7.04 16.97-6.72 16.97L-6.72 16.97Q-6.08 16.97-6.08 18.57L-6.08 18.57Q-6.08 19.69-7.12 19.85Q-8.16 20.01-8.16 20.49L-8.16 20.49Q-8.16 21.61-7.20 21.53Q-6.24 21.45-6.24 22.41L-6.24 22.41Q-6.24 23.53-8.16 23.53L-8.16 23.53Q-7.36 24.01-7.68 25.13Q-8.00 26.25-6.24 26.25L-6.24 26.25Q-6.40 27.05-6.48 27.53Q-6.56 28.00-6.56 28.32L-6.56 28.32Q-6.56 28.80-6.08 29.20Q-5.60 29.60-5.60 30.40L-5.60 30.40Q-5.60 31.52-6.08 32.00Q-6.56 32.48-6.88 33.28L-6.88 33.28Q-6.88 34.56-6.80 35.36Q-6.72 36.16-6.64 36.72Q-6.56 37.28-6.48 37.76Q-6.40 38.24-6.24 39.20L-6.24 39.20Q-7.04 43.36-10.40 46.87Q-13.76 50.39-19.51 50.39L-19.51 50.39Q-24.95 50.39-28.47 47.11Q-31.99 43.83-32.95 39.20L-32.95 39.20Q-32.79 38.56-32.15 38.56L-32.15 38.56Q-31.67 38.56-31.03 38.96Q-30.39 39.36-29.59 39.36L-29.59 39.36Q-28.79 39.36-28.79 38.40L-28.79 38.40Q-28.79 37.76-29.35 37.20Q-29.91 36.64-30.55 36.08Q-31.19 35.52-31.75 34.88Q-32.31 34.24-32.31 33.44L-32.31 33.44Q-32.31 32.16-32.79 31.28Q-33.27 30.40-33.59 29.44L-33.59 29.44Q-34.87 30.24-34.87 32.16L-34.87 32.16Q-34.87 33.44-34.31 34.80Q-33.75 36.16-32.95 36.64L-32.95 36.64Q-33.59 36.96-33.75 36.96L-33.75 36.96Q-34.23 36.96-34.55 36.16Q-34.87 35.36-35.19 34.40Q-35.50 33.44-35.82 32.56Q-36.14 31.68-36.78 31.36L-36.78 31.36Q-36.78 28.00-37.50 26.89Q-38.22 25.77-38.22 24.81L-38.22 24.81Q-38.22 24.01-37.98 23.45Q-37.74 22.89-37.74 22.41L-37.74 22.41Q-37.74 22.25-37.90 21.77Q-38.06 21.29-38.38 21.29L-38.38 21.29Q-38.70 21.29-39.02 21.45Q-39.34 21.61-39.98 21.61L-39.98 21.61Q-44.62 12.65-48.46 3.06Q-52.29-6.53-56.29-16.13L-56.29-16.13Q-56.61-10.53-57.01-4.69Q-57.41 1.14-57.41 6.58L-57.41 6.58Q-57.41 8.98-57.17 11.14Q-56.93 13.29-56.93 15.37L-56.93 15.37Q-56.93 16.81-57.25 18.25Q-57.57 19.69-57.57 20.97L-57.57 20.97Q-57.41 25.61-57.09 30.32Q-56.77 35.04-56.77 39.84L-56.77 39.84Q-56.77 42.40-56.93 44.95Q-57.09 47.51-57.57 50.23L-57.57 50.23Q-59.17 50.07-59.17 48.79L-59.17 48.79Q-59.17 47.99-58.77 47.03Q-58.37 46.07-58.37 45.27L-58.37 45.27Q-58.37 44.31-59.17 44.31L-59.17 44.31Q-60.93 44.31-60.93 46.55L-60.93 46.55Q-60.93 46.87-60.85 47.11Q-60.77 47.35-60.77 47.67L-60.77 47.67Q-61.73 46.55-62.69 46.55L-62.69 46.55Q-63.97 46.55-64.85 47.75Q-65.73 48.95-66.05 50.23L-66.05 50.23L-73.24 50.23Q-73.24 48.15-70.68 48.15L-70.68 48.15Q-69.88 48.15-69.96 48.95Q-70.04 49.75-69.24 49.75L-69.24 49.75Q-68.60 49.75-68.52 49.35Q-68.44 48.95-68.44 48.63L-68.44 48.63Q-68.44 48.63-69.00 48.07Q-69.56 47.51-70.28 46.87Q-71.00 46.23-71.72 45.67Q-72.44 45.11-72.60 45.11L-72.60 45.11Q-73.24 45.43-73.40 45.91Q-73.56 46.39-74.52 46.39L-74.52 46.39Q-74.52 43.83-73.24 43.04L-73.24 43.04Q-73.40 42.08-74.20 41.76Q-75.00 41.44-75.16 40.48L-75.16 40.48Q-75.64 40.64-75.64 40.80L-75.64 40.80Q-75.64 41.12-75.48 41.28Q-75.32 41.44-75.32 41.76L-75.32 41.76Q-75.32 42.24-75.80 42.40L-75.80 42.40Q-77.08 42.24-77.08 41.12L-77.08 41.12Q-77.08 40.48-76.44 39.92Q-75.80 39.36-75.80 39.20L-75.80 39.20Q-75.80 38.40-76.52 37.76Q-77.24 37.12-77.24 36.32L-77.24 36.32Q-77.24 35.20-75.64 35.20L-75.64 35.20Q-75.32 35.20-75.32 35.52L-75.32 35.52Q-75.32 35.84-75.64 36.16Q-75.96 36.48-75.96 36.80L-75.96 36.80Q-75.96 37.28-74.84 37.28L-74.84 37.28Q-74.52 37.28-74.52 36.80L-74.52 36.80Q-74.52 36.48-74.60 36.00Q-74.68 35.52-74.68 35.20L-74.68 35.20Q-74.68 34.56-73.88 34.56L-73.88 34.56Q-74.52 33.76-75.56 33.36Q-76.60 32.96-77.08 32.00L-77.08 32.00Q-76.92 29.12-76.84 28.24Q-76.76 27.37-75.80 25.61L-75.80 25.61Q-76.12 24.17-76.20 23.13Q-76.28 22.09-76.28 21.13Q-76.28 20.17-76.44 19.29Q-76.60 18.41-77.08 17.13L-77.08 17.13Q-76.28 15.05-75.96 12.57Q-75.64 10.10-75.24 7.94Q-74.84 5.78-74.20 4.26Q-73.56 2.74-71.96 2.74L-71.96 2.74Q-72.28 0.98-72.44-0.54Q-72.60-2.06-72.60-3.66L-72.60-3.66Q-72.60-6.21-71.96-8.29L-71.96-8.29Q-73.08-9.57-73.72-11.09Q-74.36-12.61-76.44-12.77L-76.44-12.77Q-76.60-14.05-76.92-15.25Q-77.24-16.45-77.24-17.89L-77.24-17.89Q-77.24-18.85-77.08-19.33L-77.08-19.33Q-76.76-18.53-75.88-17.73Q-75.00-16.93-74.20-16.93L-74.20-16.93Q-73.72-16.93-73.24-17.41L-73.24-17.41Q-74.36-17.73-74.44-19.01Q-74.52-20.28-75.80-20.60L-75.80-20.60Q-76.28-21.40-76.76-22.04Q-77.24-22.68-77.24-23.96L-77.24-23.96Q-77.24-24.76-77.08-25.24L-77.08-25.24Q-76.60-25.24-76.60-24.76Q-76.60-24.28-76.44-23.96L-76.44-23.96Q-75.96-24.44-75.96-24.92L-75.96-24.92Q-75.96-25.72-76.68-26.76Q-77.40-27.80-77.40-29.08L-77.40-29.08Q-77.40-29.40-77.08-30.36L-77.08-30.36Q-76.44-29.40-75.80-28.84Q-75.16-28.28-75.16-26.52L-75.16-26.52Q-74.68-27.48-74.20-27.48L-74.20-27.48Q-73.56-27.48-73.24-25.24L-73.24-25.24Q-72.12-25.72-72.12-26.52L-72.12-26.52Q-72.12-27.32-72.76-28.60Q-73.40-29.88-74.28-31.08Q-75.16-32.28-75.96-33.24Q-76.76-34.20-77.08-34.36L-77.08-34.36Q-77.08-37.55-77.00-39.87Q-76.92-42.19-76.92-44.59L-76.92-44.59Q-76.92-45.87-76.92-47.07Q-76.92-48.27-77.08-49.87L-77.08-49.87L-75.80-49.87Q-75.80-50.35-76.28-50.35Q-76.76-50.35-77.08-50.51ZM-72.60-38.19L-72.60-38.19Q-72.60-39.31-73.88-40.11L-73.88-40.11Q-73.72-39.31-73.72-38.75Q-73.72-38.19-72.60-38.19ZM-6.88-31.64L-6.88-31.64Q-6.88-32.12-7.20-32.12L-7.20-32.12Q-7.52-32.12-7.52-31.64L-7.52-31.64Q-7.52-31.32-7.20-31.32L-7.20-31.32Q-7.04-31.32-6.88-31.64ZM-34.23-10.21L-34.23-10.21Q-34.23-10.69-34.55-10.69L-34.55-10.69Q-34.87-10.69-34.87-10.21L-34.87-10.21Q-34.87-9.89-34.55-9.89L-34.55-9.89Q-34.39-9.89-34.23-10.21ZM-7.52 11.22L-7.52 11.22Q-7.52 10.74-8.16 10.74L-8.16 10.74Q-8.80 10.74-8.80 11.22L-8.80 11.22Q-8.48 11.22-8.32 11.46Q-8.16 11.70-7.84 11.70L-7.84 11.70Q-7.84 11.70-7.52 11.22ZM-39.98 20.33L-39.98 20.33Q-38.86 20.33-38.22 20.17Q-37.58 20.01-37.42 19.05L-37.42 19.05Q-38.22 19.05-38.46 18.41Q-38.70 17.77-39.50 17.77L-39.50 17.77Q-40.14 17.77-40.14 18.89L-40.14 18.89Q-40.14 19.21-40.06 19.61Q-39.98 20.01-39.98 20.33ZM-25.75 46.39L-25.75 46.39Q-25.75 45.91-26.39 45.91L-26.39 45.91Q-27.03 45.91-27.03 46.39L-27.03 46.39Q-26.71 46.39-26.47 46.63Q-26.23 46.87-26.07 46.87L-26.07 46.87Q-26.07 46.87-25.75 46.39Z"/><path fill="#004358" opacity="1" d="M43.01-22.52L43.01-22.52Q42.85-21.56 42.61-20.76Q42.37-19.97 41.09-19.97L41.09-19.97Q41.09-21.24 41.33-21.88Q41.57-22.52 43.01-22.52ZM41.09-18.69L41.09-18.69Q41.09-19.17 41.57-19.17Q42.05-19.17 42.37-19.33L42.37-19.33Q42.37-18.85 41.89-18.85Q41.41-18.85 41.09-18.69ZM30.69 50.23L30.69 50.23Q30.69 49.75 31.17 49.75Q31.65 49.75 31.97 49.59L31.97 49.59Q31.97 50.07 31.49 50.07Q31.01 50.07 30.69 50.23ZM22.86 39.20L22.86 39.20Q22.86 34.72 22.94 30.24Q23.02 25.77 23.02 21.13L23.02 21.13Q23.02 9.62 22.86-1.66Q22.70-12.93 22.70-24.28L22.70-24.28Q22.70-34.52 22.86-44.51Q23.02-54.50 23.50-64.26L23.50-64.26Q29.41-64.26 35.41-64.10Q41.41-63.94 46.84-63.94L46.84-63.94Q49.08-63.94 51.24-64.10Q53.40-64.26 55.32-64.26L55.32-64.26Q59.00-64.26 63.47-63.54Q67.95-62.82 70.99-61.54L70.99-61.54Q71.63-61.22 72.03-60.58Q72.43-59.94 73.07-59.62L73.07-59.62Q76.59-57.86 78.50-56.82Q80.42-55.78 81.62-54.74Q82.82-53.70 83.94-52.18Q85.06-50.67 87.30-47.95L87.30-47.95Q88.58-46.19 89.94-44.91Q91.30-43.63 92.58-41.39L92.58-41.39Q95.45-36.27 97.77-29.40Q100.09-22.52 100.89-15.49L100.89-15.49Q100.89-14.69 100.81-13.89Q100.73-13.09 100.73-12.29L100.73-12.29Q100.73-9.73 100.89-7.25Q101.05-4.77 101.05-2.38L101.05-2.38Q101.05 3.70 99.53 9.46Q98.01 15.21 95.61 20.41Q93.21 25.61 90.50 30.08Q87.78 34.56 85.38 37.92L85.38 37.92Q84.74 38.56 83.78 38.80Q82.82 39.04 82.02 39.84L82.02 39.84Q78.34 43.52 74.43 45.59Q70.51 47.67 66.19 48.79Q61.87 49.91 57.32 50.23Q52.76 50.55 48.12 50.55L48.12 50.55Q44.92 50.55 41.81 50.47Q38.69 50.39 35.49 50.39L35.49 50.39Q34.21 50.39 34.29 48.87Q34.37 47.35 34.05 47.03L34.05 47.03Q33.89 47.03 32.69 47.19Q31.49 47.35 31.33 48.31L31.33 48.31Q30.53 47.99 30.29 46.79Q30.05 45.59 29.89 44.31Q29.73 43.04 29.41 42.08Q29.09 41.12 28.46 41.12L28.46 41.12Q28.30 41.12 28.14 41.84Q27.98 42.56 27.66 42.56L27.66 42.56Q27.50 42.56 27.26 41.92Q27.02 41.28 26.54 40.56Q26.06 39.84 25.50 39.20Q24.94 38.56 24.30 38.56L24.30 38.56Q23.98 39.68 23.18 39.68L23.18 39.68Q22.86 39.68 22.86 39.20ZM43.01-43.47L43.01-35.00Q43.01-34.20 42.29-34.36Q41.57-34.52 41.57-33.72L41.57-33.72Q41.57-32.92 42.37-33.00Q43.17-33.08 43.17-32.28L43.17-32.28Q43.17-31.96 43.09-31.64Q43.01-31.32 43.01-31.00L43.01-31.00Q43.01-30.36 43.09-29.64Q43.17-28.92 43.17-28.12L43.17-28.12Q43.17-26.68 42.37-26.52L42.37-26.52Q42.37-27.16 42.29-27.80Q42.21-28.44 41.41-28.44L41.41-28.44Q41.41-28.44 41.17-27.40Q40.93-26.36 40.69-25.08Q40.45-23.80 40.21-22.76Q39.97-21.72 39.97-21.56L39.97-21.56Q39.97-20.44 40.45-19.33L40.45-19.33Q40.45-18.69 39.89-18.61Q39.33-18.53 39.17-18.05L39.17-18.05Q39.81-17.89 39.81-17.25L39.81-17.25Q39.81-16.61 39.41-15.81Q39.01-15.01 39.01-14.37L39.01-14.37Q39.01-13.41 40.45-13.41L40.45-13.41Q40.77-13.41 40.77-13.89L40.77-13.89Q40.77-14.21 40.61-14.69Q40.45-15.17 40.45-15.65L40.45-15.65Q40.45-16.77 41.73-16.77L41.73-16.77Q43.01-16.13 43.01-15.01L43.01-15.01Q43.01-14.21 42.53-13.25Q42.05-12.29 41.73-11.49L41.73-11.49Q43.17-11.49 43.17-10.37L43.17-10.37Q43.17-9.57 42.53-9.57L42.53-9.57Q41.25-9.57 41.17-10.85Q41.09-12.13 39.81-12.13L39.81-12.13Q39.81-11.81 39.89-11.73Q39.97-11.65 39.97-11.33L39.97-11.33Q39.97-10.69 39.81-10.05Q39.65-9.41 39.65-8.93L39.65-8.93Q39.65-7.81 40.45-7.65L40.45-7.65Q40.45-8.29 41.25-8.29L41.25-8.29Q42.05-8.29 42.37-7.65L42.37-7.65Q41.73-7.01 41.73-6.85L41.73-6.85Q41.73-6.53 42.37-6.69Q43.01-6.85 43.01-6.37L43.01-6.37L43.01 29.44Q44.29 29.92 45.96 30.08Q47.64 30.24 49.40 30.24L49.40 30.24Q51.96 30.24 54.36 30.16Q56.76 30.08 59.32 30.08L59.32 30.08Q61.07 29.44 62.83 28.80Q64.59 28.16 66.51 27.53L66.51 27.53Q69.39 23.85 73.07 20.97L73.07 20.97Q74.51 18.41 75.79 15.69Q77.06 12.97 78.82 10.58L78.82 10.58Q78.98 6.26 79.94 2.50Q80.90-1.26 80.90-5.89L80.90-5.89Q80.90-16.93 77.86-24.84Q74.83-32.76 69.71-38.83L69.71-38.83Q70.35-38.99 70.35-39.95L70.35-39.95Q70.35-40.91 69.55-40.91L69.55-40.91Q68.75-40.91 68.43-40.51Q68.11-40.11 67.15-40.11L67.15-40.11Q65.71-42.35 62.75-42.91Q59.80-43.47 56.12-43.47L56.12-43.47Q53.88-43.47 51.40-43.39Q48.92-43.31 46.68-43.31L46.68-43.31Q45.72-43.31 44.76-43.31Q43.81-43.31 43.01-43.47L43.01-43.47ZM84.74 4.02L84.74 4.02Q84.74 3.54 84.10 3.54L84.10 3.54Q83.46 3.54 83.46 4.02L83.46 4.02Q83.46 4.50 83.78 4.50L83.78 4.50Q84.26 4.50 84.74 4.02ZM25.58 41.76L25.58 41.76Q26.38 41.76 26.54 42.48Q26.70 43.20 27.50 43.20L27.50 43.20Q27.66 43.20 27.82 43.12Q27.98 43.04 28.14 43.04L28.14 43.04Q27.18 44.95 27.18 45.75L27.18 45.75Q27.18 46.23 27.26 46.95Q27.34 47.67 27.50 48.95L27.50 48.95Q26.54 48.95 26.54 49.43L26.54 49.43L26.54 49.59L26.86 49.59Q26.54 50.39 25.50 50.31Q24.46 50.23 24.30 50.23L24.30 50.23Q24.30 49.59 24.30 48.55Q24.30 47.51 23.50 47.51L23.50 47.51Q23.34 47.51 23.26 47.59Q23.18 47.67 22.86 47.67L22.86 47.67L22.86 44.31Q23.66 44.47 23.58 45.43Q23.50 46.39 24.30 46.39L24.30 46.39Q24.30 45.75 24.94 44.87Q25.58 43.99 25.58 41.76Z"/><path fill="#004358" opacity="1" d="M162.93 32.32L162.93 32.32Q163.25 32.32 163.25 32.16L163.25 32.16Q163.25 31.84 162.45 31.28Q161.65 30.72 161.49 30.40L161.49 30.40Q163.25 29.76 166.45 29.76L166.45 29.76Q168.05 29.76 169.65 29.84Q171.25 29.92 172.84 29.92L172.84 29.92Q174.44 29.92 175.24 29.76L175.24 29.76Q175.72 30.24 175.72 30.56L175.72 30.56Q175.72 31.04 175.24 31.28Q174.76 31.52 174.60 32.32L174.60 32.32Q175.08 32.16 175.88 32.16L175.88 32.16Q177.00 32.16 177.48 32.56Q177.96 32.96 178.60 32.96L178.60 32.96Q178.92 32.96 178.92 32.80L178.92 32.80Q178.92 32.32 178.44 32.32L178.44 32.32Q178.76 32.00 179.56 32.00L179.56 32.00Q179.88 32.00 180.28 32.08Q180.68 32.16 181.16 32.16L181.16 32.16Q181.48 32.16 182.28 32.00Q183.08 31.84 183.08 31.36L183.08 31.36Q183.08 30.72 182.60 30.72L182.60 30.72Q182.44 30.88 182.44 31.04L182.44 31.04Q181.80 30.88 181.80 30.56L181.80 30.56Q181.80 30.24 182.76 29.92Q183.72 29.60 184.52 29.60L184.52 29.60Q185.64 29.60 186.04 29.84Q186.44 30.08 186.68 30.32Q186.92 30.56 187.08 30.80Q187.24 31.04 187.88 31.04L187.88 31.04Q188.67 31.04 188.67 30.40Q188.67 29.76 189.47 29.76L189.47 29.76Q191.71 29.76 193.07 29.84Q194.43 29.92 195.87 29.92L195.87 29.92Q196.67 29.92 197.39 29.92Q198.11 29.92 199.23 29.76L199.23 29.76Q199.23 34.72 199.07 37.60Q198.91 40.48 198.91 43.68L198.91 43.68Q198.91 44.95 198.91 46.23Q198.91 47.51 199.23 49.27L199.23 49.27Q198.75 49.75 197.87 49.91Q196.99 50.07 196.03 50.07L196.03 50.07Q194.91 50.07 193.63 49.99Q192.35 49.91 191.55 49.91L191.55 49.91Q191.55 49.11 191.87 48.63Q192.19 48.15 192.19 47.35L192.19 47.35Q191.39 48.15 190.11 48.23Q188.83 48.31 188.83 49.91L188.83 49.91Q188.36 49.75 188.36 49.19Q188.36 48.63 188.20 47.99L188.20 47.99Q187.72 47.99 187.64 48.31Q187.56 48.63 187.56 49.03Q187.56 49.43 187.32 49.67Q187.08 49.91 186.28 49.91L186.28 49.91Q184.36 49.91 184.36 48.95L184.36 48.95Q184.36 48.63 185.00 47.99L185.00 47.99Q183.72 48.47 183.72 49.91L183.72 49.91Q182.92 49.59 182.68 48.95Q182.44 48.31 182.20 47.67Q181.96 47.03 181.56 46.55Q181.16 46.07 180.04 46.07L180.04 46.07Q179.08 46.07 178.76 46.39Q178.44 46.71 178.28 47.03Q178.12 47.35 177.96 47.67Q177.80 47.99 177.16 47.99L177.16 47.99L177.16 46.07Q176.52 46.23 176.52 47.19L176.52 47.19Q176.52 47.99 177.16 47.99L177.16 47.99Q176.68 48.63 176.52 48.63L176.52 48.63Q176.04 48.63 175.64 47.91Q175.24 47.19 174.44 47.19L174.44 47.19Q174.28 47.19 174.20 47.27Q174.12 47.35 173.96 47.35L173.96 47.35Q174.28 47.99 174.68 48.07Q175.08 48.15 175.08 48.47L175.08 48.47Q175.08 48.63 174.76 49.11Q174.44 49.59 173.80 49.59L173.80 49.59Q173.32 49.59 173.08 49.27Q172.84 48.95 172.53 48.95L172.53 48.95Q172.37 48.95 170.29 49.43Q168.21 49.91 166.45 49.91L166.45 49.91Q161.97 49.91 157.97 49.67Q153.98 49.43 149.82 48.63L149.82 48.63Q149.82 47.51 150.46 47.35L150.46 47.35Q150.30 47.19 150.30 46.87L150.30 46.87Q150.30 46.71 150.14 46.71L150.14 46.71Q149.82 46.71 149.50 47.43Q149.18 48.15 148.38 48.15L148.38 48.15Q147.74 48.15 147.50 47.75Q147.26 47.35 145.98 47.35L145.98 47.35Q139.11 43.20 134.23 37.28Q129.35 31.36 127.75 21.93L127.75 21.93L127.75-35.96Q128.23-38.99 129.11-41.63Q129.99-44.27 130.95-46.99L130.95-46.99Q131.27-46.83 131.91-46.83L131.91-46.83Q132.55-46.83 133.75-47.23Q134.95-47.63 134.95-47.95L134.95-47.95Q134.95-49.55 133.03-49.55L133.03-49.55Q134.15-51.31 135.11-52.98Q136.07-54.66 138.15-55.46L138.15-55.46Q138.47-55.14 138.47-54.50L138.47-54.50Q138.47-53.70 137.35-52.98Q136.23-52.26 134.95-52.11L134.95-52.11Q136.55-51.47 136.55-50.51L136.55-50.51Q136.55-49.87 135.59-48.91L135.59-48.91Q137.51-49.23 138.31-50.75Q139.11-52.26 139.11-54.02L139.11-54.02Q139.11-54.82 139.03-55.38Q138.95-55.94 138.79-56.74L138.79-56.74Q139.59-57.06 140.15-57.62Q140.70-58.18 141.82-58.18L141.82-58.18Q142.14-58.18 142.30-58.10Q142.46-58.02 142.78-58.02L142.78-58.02Q143.74-58.02 143.74-58.66L143.74-58.66Q143.74-58.98 143.66-59.14Q143.58-59.30 143.58-59.62L143.58-59.62Q143.58-59.94 144.06-59.94L144.06-59.94Q145.34-61.22 147.34-62.02Q149.34-62.82 151.50-63.30Q153.66-63.78 155.74-64.02Q157.81-64.26 159.57-64.58L159.57-64.58Q168.85-64.26 176.52-64.42Q184.20-64.58 191.55-63.94L191.55-63.94Q192.83-64.42 194.75-64.50Q196.67-64.58 198.59-64.58L198.59-64.58Q199.07-62.82 199.23-60.66Q199.39-58.50 199.39-56.26L199.39-56.26Q199.39-53.86 199.23-51.39Q199.07-48.91 199.07-46.67L199.07-46.67Q199.07-45.87 199.15-45.23Q199.23-44.59 199.23-43.79L199.23-43.79Q197.15-43.79 195.15-43.71Q193.15-43.63 190.91-43.63L190.91-43.63Q188.52-43.63 186.36-43.95Q184.20-44.27 182.44-45.07L182.44-45.07Q181.16-44.59 180.92-44.19Q180.68-43.79 178.12-43.79L178.12-43.79Q175.72-43.79 173.32-43.71Q170.93-43.63 168.53-43.63L168.53-43.63Q165.97-43.63 163.57-43.79Q161.17-43.95 158.93-44.43L158.93-44.43Q152.54-43.47 150.06-38.67Q147.58-33.88 147.58-26.52L147.58-26.52Q147.58-25.24 147.66-23.80Q147.74-22.36 147.90-20.92L147.90-20.92L173.96-20.92L173.96-0.78L163.57-0.78Q163.89-1.10 163.89-1.42L163.89-1.42Q163.89-1.74 163.57-2.70L163.57-2.70Q162.93-2.70 162.93-1.98Q162.93-1.26 162.93-0.78L162.93-0.78Q161.81-0.78 160.93-0.86Q160.05-0.94 159.09-0.94L159.09-0.94Q156.69-0.94 154.22-0.86Q151.74-0.78 148.54-0.78L148.54-0.78Q148.22 1.94 147.98 5.54Q147.74 9.14 147.74 12.81L147.74 12.81Q147.74 17.29 148.54 21.05Q149.34 24.81 151.74 26.57L151.74 26.57Q151.74 28.00 151.10 28.08Q150.46 28.16 150.46 29.12L150.46 29.12Q151.74 29.28 152.78 30.00Q153.82 30.72 154.62 30.72L154.62 30.72Q155.58 30.72 155.74 29.12L155.74 29.12Q156.38 29.28 156.30 29.84Q156.22 30.40 156.38 31.04L156.38 31.04Q156.69 29.76 159.25 29.76L159.25 29.76Q160.53 29.76 160.93 30.16Q161.33 30.56 161.41 31.12Q161.49 31.68 161.57 32.08Q161.65 32.48 162.29 32.48L162.29 32.48Q162.77 32.48 162.93 32.32ZM169.33 48.63L169.33 48.63Q169.33 49.27 170.61 49.27L170.61 49.27L172.05 49.27Q171.73 48.63 170.93 48.63Q170.13 48.63 169.33 48.63ZM140.70-57.38L140.70-57.38Q140.70-55.46 141.98-55.46L141.98-55.46Q141.82-55.62 141.82-55.94L141.82-55.94Q141.82-56.74 143.02-56.90Q144.22-57.06 144.22-57.38L144.22-57.38Q144.22-57.54 143.42-58.02L143.42-58.02Q142.62-56.90 141.82-56.90L141.82-56.90Q141.18-56.90 140.70-57.38ZM129.67-27.48L129.67-27.48Q129.67-28.92 128.39-29.40L128.39-29.40Q128.39-27.96 129.67-27.48ZM157.65-19.65L157.65-19.65Q157.65-20.13 157.01-20.13L157.01-20.13Q156.38-20.13 156.38-19.65L156.38-19.65Q156.38-19.17 156.69-19.17L156.69-19.17Q157.01-19.17 157.17-19.33Q157.33-19.49 157.65-19.65ZM140.70 42.08L140.70 42.08Q141.02 41.60 141.34 41.20Q141.66 40.80 141.66 40.32L141.66 40.32Q141.66 39.52 140.70 38.88L140.70 38.88Q140.55 39.04 140.23 39.68Q139.91 40.32 139.91 41.12L139.91 41.12Q139.91 42.08 140.70 42.08ZM145.98 43.99L145.98 43.99Q145.50 43.99 145.34 43.83Q145.18 43.68 145.02 43.68L145.02 43.68Q144.70 43.68 144.70 43.99L144.70 43.99Q144.70 44.63 145.34 44.63L145.34 44.63Q145.82 44.63 145.98 43.99ZM156.38 47.35L156.38 47.35Q156.06 46.87 155.26 46.87L155.26 46.87Q154.46 46.87 154.46 47.67L154.46 47.67Q154.46 48.47 155.42 48.47L155.42 48.47Q156.38 48.47 156.38 47.35ZM178.44 49.27L178.44 49.27L177.96 48.79L178.44 49.27Q178.76 49.59 179.08 49.75L179.08 49.75L178.92 49.75Q178.60 49.75 178.44 49.27Z"/><path fill="#004358" opacity="1" d="M296.61-15.33L296.61-15.33Q296.61-15.65 296.93-15.65L296.93-15.65Q297.41-15.65 297.41-15.33L297.41-15.33Q297.09-14.85 296.93-14.85L296.93-14.85Q296.61-14.85 296.61-15.33ZM293.41-8.77L293.41-8.77Q293.41-7.49 292.85-7.17Q292.29-6.85 290.85-6.85L290.85-6.85Q291.17-7.65 291.65-8.21Q292.13-8.77 293.41-8.77ZM260.95 6.26L260.95 6.26L260.95 6.90Q260.95 7.54 260.63 7.54L260.63 7.54Q260.31 7.54 259.67 7.22Q259.03 6.90 259.03 6.74L259.03 6.74Q259.03 5.62 260.31 5.62L260.31 5.62Q260.95 5.62 260.95 6.26ZM231.69 32.80L231.69 32.80Q231.05 33.60 230.57 33.60L230.57 33.60Q230.09 33.60 230.09 32.96L230.09 32.96Q230.09 32.32 230.57 32.32L230.57 32.32Q230.89 32.32 231.69 32.80ZM231.05 43.83L231.05 43.83L231.05 43.52L231.21 43.52Q231.69 43.52 231.69 43.83L231.69 43.83Q231.37 44.31 231.37 44.31L231.37 44.31Q231.05 44.31 231.05 43.83ZM234.89 48.47L234.89 48.47Q234.89 47.99 235.53 47.99L235.53 47.99Q236.17 47.99 236.17 48.47L236.17 48.47Q235.85 48.95 235.85 48.95L235.85 48.95Q235.69 48.95 235.45 48.71Q235.21 48.47 234.89 48.47ZM284.30 49.75L284.30 49.75Q283.02 50.55 282.06 50.55L282.06 50.55Q281.58 50.55 281.58 50.23L281.58 50.23Q281.58 49.43 282.86 49.43L282.86 49.43Q283.02 49.43 284.30 49.75ZM229.13-12.61L229.13-12.61Q229.13-13.09 229.45-13.09L229.45-13.09Q229.77-13.09 229.77-12.77Q229.77-12.45 230.41-12.45L230.41-12.45Q231.21-12.45 231.05-13.33Q230.89-14.21 231.69-14.21L231.69-14.21Q231.85-14.21 231.93-14.13Q232.01-14.05 232.33-14.05L232.33-14.05Q232.49-14.37 232.49-14.37L232.49-14.37Q232.49-14.85 232.01-15.33Q231.53-15.81 231.53-16.13L231.53-16.13Q231.53-16.45 232.33-16.61L232.33-16.61Q232.17-16.93 232.01-16.93L232.01-16.93Q231.69-16.93 231.69-16.77Q231.69-16.61 231.53-16.61L231.53-16.61Q230.89-16.61 230.33-17.49Q229.77-18.37 229.45-18.37L229.45-18.37Q229.29-18.37 229.13-17.89L229.13-17.89Q228.49-18.53 228.49-19.49L228.49-19.49Q228.49-20.28 228.73-21.00Q228.97-21.72 229.13-22.36L229.13-22.36Q229.45-22.20 230.09-22.20L230.09-22.20Q231.85-22.20 232.33-23.48Q232.81-24.76 233.61-25.72L233.61-25.72L231.69-27.64Q230.89-27.16 230.57-26.20Q230.25-25.24 229.77-24.44L229.77-24.44Q229.13-24.44 229.13-25.08L229.13-25.08Q229.13-25.40 229.45-25.48Q229.77-25.56 229.77-25.88L229.77-25.88Q229.77-26.84 229.21-27.48Q228.65-28.12 228.65-28.76L228.65-28.76Q228.65-29.40 229.77-29.56L229.77-29.56Q229.45-30.20 228.97-30.52Q228.49-30.84 228.33-31.48L228.33-31.48Q228.49-32.28 228.49-33.08Q228.49-33.88 228.49-34.68L228.49-34.68Q228.49-36.75 228.33-38.83Q228.17-40.91 228.17-42.83L228.17-42.83Q228.17-45.07 228.49-46.75Q228.81-48.43 229.77-49.71L229.77-49.71Q228.81-50.67 228.49-52.18Q228.17-53.70 228.17-55.46L228.17-55.46Q228.17-57.54 228.25-59.62Q228.33-61.70 228.33-63.46L228.33-63.46Q228.65-63.30 229.13-63.30L229.13-63.30Q230.09-63.30 230.73-63.62Q231.37-63.94 232.01-63.94L232.01-63.94Q232.49-63.94 232.97-62.82L232.97-62.82Q233.45-62.82 233.45-63.22Q233.45-63.62 233.61-64.10L233.61-64.10Q234.41-64.10 234.81-63.78Q235.21-63.46 235.85-63.46L235.85-63.46Q238.88-63.46 242.88-63.78Q246.88-64.10 251.36-64.10L251.36-64.10Q255.83-64.10 260.15-63.94Q264.47-63.78 268.15-63.46L268.15-63.46Q268.15-61.86 269.10-61.86L269.10-61.86Q269.42-61.86 269.82-61.94Q270.22-62.02 270.70-62.02L270.70-62.02Q270.38-61.86 269.82-61.30Q269.26-60.74 269.26-60.10L269.26-60.10Q269.26-59.46 270.70-59.46L270.70-59.46Q271.02-60.10 271.26-60.74Q271.50-61.38 271.98-62.82L271.98-62.82Q274.38-62.50 276.86-61.54Q279.34-60.58 281.42-59.38Q283.50-58.18 284.85-56.82Q286.21-55.46 286.21-54.34L286.21-54.34Q286.53-54.66 287.17-54.66L287.17-54.66Q287.49-54.66 288.21-54.02Q288.93-53.38 289.57-52.66Q290.21-51.95 290.77-51.31Q291.33-50.67 291.49-50.67L291.49-50.67Q291.49-50.03 290.85-49.71L290.85-49.71Q291.33-49.23 291.89-48.99Q292.45-48.75 292.93-48.51Q293.41-48.27 293.73-47.87Q294.05-47.47 294.05-46.51L294.05-46.51Q295.33-45.55 296.21-43.79Q297.09-42.03 297.65-40.11Q298.21-38.19 298.61-36.43Q299.01-34.68 299.33-33.56L299.33-33.56Q299.01-32.76 298.61-32.52Q298.21-32.28 298.05-31.48L298.05-31.48L298.05-31.16L298.21-31.16Q298.69-31.16 298.69-31.48L298.69-31.48Q299.33-30.20 299.33-28.60L299.33-28.60Q299.33-27.32 299.01-25.96Q298.69-24.60 298.69-23.48L298.69-23.48Q298.69-22.36 299.33-21.72L299.33-21.72Q299.01-20.92 298.53-19.97Q298.05-19.01 297.41-19.01L297.41-19.01Q296.61-19.01 296.29-19.33Q295.97-19.65 295.33-19.81L295.33-19.81Q294.21-19.17 294.21-18.21L294.21-18.21Q294.21-17.57 294.45-16.85Q294.69-16.13 294.69-15.33L294.69-15.33Q294.21-16.29 293.73-16.29L293.73-16.29Q293.57-16.29 293.57-15.81L293.57-15.81Q293.57-15.49 293.81-15.17Q294.05-14.85 294.69-14.69L294.69-14.69Q293.89-14.37 292.61-13.25Q291.33-12.13 291.33-9.89L291.33-9.89Q291.33-9.09 291.49-8.77L291.49-8.77Q291.01-9.09 290.21-9.09L290.21-9.09Q288.93-9.09 288.21-7.81Q287.49-6.53 286.21-6.21L286.21-6.21Q287.01-5.41 287.25-4.37Q287.49-3.34 288.93-3.34L288.93-3.34Q289.09-3.34 289.17-3.42Q289.25-3.50 289.57-3.50L289.57-3.50Q288.93-2.70 288.21-2.22Q287.49-1.74 286.85-0.94L286.85-0.94L286.37-0.94Q286.21-0.94 286.21-1.10L286.21-1.10Q286.21-1.42 286.53-1.66Q286.85-1.90 286.85-2.06L286.85-2.06Q286.85-2.22 286.37-2.22L286.37-2.22Q284.77-2.22 284.77 0.82L284.77 0.82Q284.77 2.10 285.25 3.22Q285.73 4.34 287.01 4.34L287.01 4.34Q287.33 4.34 287.65 4.18L287.65 4.18Q287.65 5.62 287.33 6.26Q287.01 6.90 285.57 6.90L285.57 6.90Q286.37 7.06 286.45 7.46Q286.53 7.86 286.53 8.50L286.53 8.50L286.53 8.82Q286.53 9.62 286.85 10.18Q287.17 10.74 288.93 10.74L288.93 10.74Q289.73 10.42 289.73 10.10L289.73 10.10Q289.73 9.62 289.25 9.06Q288.77 8.50 288.77 7.86L288.77 7.86Q288.77 7.70 288.85 7.70Q288.93 7.70 288.93 7.54L288.93 7.54Q290.69 8.50 291.41 10.58Q292.13 12.65 293.41 13.93L293.41 13.93Q292.93 14.73 292.53 15.45Q292.13 16.17 291.49 16.65L291.49 16.65Q291.65 18.09 293.17 18.17Q294.69 18.25 295.33 19.21L295.33 19.21Q294.85 20.33 294.29 21.37Q293.73 22.41 293.41 23.69L293.41 23.69Q293.89 24.17 294.61 24.33Q295.33 24.49 295.33 26.41L295.33 26.41Q296.61 25.93 296.61 24.33L296.61 24.33Q297.41 26.41 298.37 30.08Q299.33 33.76 299.33 36.16L299.33 36.16Q299.33 36.00 298.85 35.76Q298.37 35.52 298.05 35.52L298.05 35.52Q298.21 36.32 298.77 36.64Q299.33 36.96 299.33 38.08L299.33 38.08Q299.33 39.36 298.85 39.36L298.85 39.36Q298.53 39.36 298.53 37.76L298.53 37.76Q298.53 36.96 298.69 36.80L298.69 36.80Q297.09 37.28 296.61 38.56Q296.13 39.84 296.13 41.36Q296.13 42.88 296.21 44.31Q296.29 45.75 295.97 46.55L295.97 46.55Q296.13 46.87 296.37 47.35Q296.61 47.83 296.93 47.83L296.93 47.83Q298.21 47.83 298.45 47.11Q298.69 46.39 298.69 45.27L298.69 45.27Q299.97 45.27 299.97 47.19Q299.97 49.11 299.97 50.39L299.97 50.39Q299.17 50.23 298.45 50.23Q297.73 50.23 296.93 50.23L296.93 50.23Q294.85 50.23 292.53 50.39Q290.21 50.55 287.81 50.55L287.81 50.55Q287.33 50.55 286.13 50.47Q284.93 50.39 284.93 50.07L284.93 50.07Q284.93 49.11 286.21 49.11L286.21 49.11Q285.57 48.63 285.41 48.39Q285.25 48.15 285.25 47.91Q285.25 47.67 285.25 47.35Q285.25 47.03 284.93 46.55L284.93 46.55Q283.98 47.03 282.94 47.43Q281.90 47.83 281.74 49.11L281.74 49.11Q280.78 48.95 280.30 48.23Q279.82 47.51 279.82 46.71L279.82 46.71Q279.82 44.79 281.10 43.83L281.10 43.83Q279.82 43.36 279.82 41.60L279.82 41.60Q279.82 40.64 280.46 40.00L280.46 40.00Q280.14 39.52 280.14 39.52L280.14 39.52Q279.82 39.52 279.82 40.00L279.82 40.00Q279.02 36.32 278.22 32.72Q277.42 29.12 277.10 24.97L277.10 24.97Q275.66 24.65 275.26 23.85Q274.86 23.05 274.78 22.09Q274.70 21.13 274.78 20.01Q274.86 18.89 274.54 17.93L274.54 17.93Q273.42 18.25 273.42 18.89L273.42 18.89Q273.42 19.21 273.90 19.21L273.90 19.21Q273.58 19.53 273.42 19.53L273.42 19.53Q272.78 19.53 272.14 18.17Q271.50 16.81 271.34 16.01L271.34 16.01Q272.30 15.69 272.30 14.57Q272.30 13.45 273.26 13.29L273.26 13.29Q273.10 12.17 272.06 11.85Q271.02 11.54 270.70 10.74L270.70 10.74Q270.22 10.74 270.22 11.06L270.22 11.06Q270.22 11.54 270.54 12.25Q270.86 12.97 270.86 13.77L270.86 13.77Q270.86 14.25 270.70 14.57L270.70 14.57Q269.42 14.41 268.70 13.77Q267.99 13.13 267.35 12.41Q266.71 11.70 265.99 11.06Q265.27 10.42 264.15 10.10L264.15 10.10Q264.31 9.46 264.95 9.46L264.95 9.46Q265.43 9.46 265.91 9.70Q266.39 9.94 266.71 9.94L266.71 9.94Q267.03 9.94 267.35 9.46L267.35 9.46Q267.35 8.66 266.63 8.50Q265.91 8.34 265.91 7.54L265.91 7.54Q265.91 7.38 265.99 7.22Q266.07 7.06 266.07 6.90L266.07 6.90Q265.27 6.90 264.71 7.06Q264.15 7.22 263.83 7.22L263.83 7.22Q263.35 7.22 263.35 6.42L263.35 6.42Q263.35 6.26 263.43 6.02Q263.51 5.78 263.51 5.46L263.51 5.46Q262.71 6.26 261.59 6.26L261.59 6.26Q261.59 5.30 260.95 5.14Q260.31 4.98 260.31 4.18L260.31 4.18Q258.71 4.18 257.59 4.66Q256.47 5.14 255.43 5.70Q254.39 6.26 253.27 6.66Q252.16 7.06 250.56 7.06L250.56 7.06Q250.24 7.06 249.92 6.98Q249.60 6.90 249.28 6.90L249.28 6.90Q248.48 7.86 248.48 10.10L248.48 10.10Q248.48 11.70 248.56 13.21Q248.64 14.73 248.64 16.01L248.64 16.01Q248.32 16.01 248.24 15.93Q248.16 15.85 248.00 15.85L248.00 15.85Q247.20 15.85 247.20 16.97Q247.20 18.09 247.20 19.21L247.20 19.21Q247.36 19.69 248.00 19.77Q248.64 19.85 248.64 20.65L248.64 20.65Q248.64 21.45 247.92 22.57Q247.20 23.69 247.20 24.65L247.20 24.65Q247.20 25.13 247.92 25.37Q248.64 25.61 248.64 25.93L248.64 25.93Q248.64 27.21 247.76 27.53Q246.88 27.84 246.56 28.96L246.56 28.96Q246.72 29.60 247.36 29.52Q248.00 29.44 248.64 29.60L248.64 29.60Q248.64 30.88 248.48 31.84Q248.32 32.80 247.20 32.80L247.20 32.80Q247.52 33.44 248.00 34.16Q248.48 34.88 248.48 35.52L248.48 35.52Q248.48 36.64 247.20 36.80L247.20 36.80Q248.00 37.76 248.24 38.72Q248.48 39.68 248.48 40.80L248.48 40.80Q248.48 41.60 248.40 42.56Q248.32 43.52 248.32 44.63L248.32 44.63Q248.32 45.27 248.40 45.83Q248.48 46.39 248.64 47.19L248.64 47.19Q247.36 46.39 247.28 44.79Q247.20 43.20 246.56 41.92L246.56 41.92Q246.08 42.24 246.08 43.52L246.08 43.52Q246.08 44.47 246.32 45.43Q246.56 46.39 246.56 46.55L246.56 46.55Q246.24 47.03 245.60 47.03L245.60 47.03Q244.80 47.03 244.00 46.39Q243.20 45.75 243.20 44.63L243.20 44.63Q243.20 44.15 243.36 43.83L243.36 43.83Q242.72 44.31 242.72 44.79L242.72 44.79Q242.72 45.27 242.96 45.83Q243.20 46.39 243.20 46.87L243.20 46.87Q243.20 47.51 242.56 47.67Q241.92 47.83 241.92 48.63L241.92 48.63Q241.92 49.75 243.36 49.75L243.36 49.75Q243.36 50.55 242.56 50.55L242.56 50.55Q241.60 50.55 240.80 50.47Q240.00 50.39 240.00 49.91L240.00 49.91Q240.00 49.11 240.72 48.87Q241.44 48.63 241.44 47.83L241.44 47.83Q240.32 47.03 239.20 46.47Q238.08 45.91 236.80 45.27L236.80 45.27Q236.33 45.27 236.33 45.75Q236.33 46.23 236.17 46.55L236.17 46.55Q235.53 45.43 235.05 45.43L235.05 45.43Q234.73 45.43 234.25 45.83Q233.77 46.23 232.97 46.55L232.97 46.55Q232.97 45.91 233.37 45.59Q233.77 45.27 234.25 45.03Q234.73 44.79 235.13 44.39Q235.53 43.99 235.53 43.20L235.53 43.20Q234.73 43.20 233.21 42.48Q231.69 41.76 231.05 41.92L231.05 41.92Q230.25 41.60 230.17 40.56Q230.09 39.52 229.77 38.72L229.77 38.72Q230.73 38.08 231.05 38.08L231.05 38.08Q231.37 38.08 232.33 38.72L232.33 38.72Q231.69 38.08 231.69 37.44L231.69 37.44Q231.69 36.80 232.33 36.16L232.33 36.16Q231.69 34.56 231.85 33.84Q232.01 33.12 231.69 30.88L231.69 30.88L232.01 30.88L232.17 30.72Q232.17 30.40 231.93 30.16Q231.69 29.92 231.69 29.76L231.69 29.76Q231.69 29.60 232.97 29.60L232.97 29.60Q232.97 28.96 232.17 28.96L232.17 28.96Q231.37 28.96 230.89 29.52Q230.41 30.08 230.41 30.88L230.41 30.88Q229.13 30.88 229.13 29.92L229.13 29.92Q229.13 29.44 229.69 29.20Q230.25 28.96 231.05 28.96L231.05 28.96Q230.89 28.48 230.89 27.69L230.89 27.69Q230.89 26.41 231.61 25.93Q232.33 25.45 232.33 24.17L232.33 24.17Q232.33 23.69 231.05 23.69L231.05 23.69Q229.61 23.69 229.77 24.33L229.77 24.33Q229.13 24.17 229.13 23.69L229.13 23.69Q229.13 23.05 229.77 22.49Q230.41 21.93 231.21 21.93L231.21 21.93Q231.85 21.93 232.33 22.41L232.33 22.41Q232.01 21.13 230.89 20.25Q229.77 19.37 229.77 18.73L229.77 18.73Q229.77 18.09 229.93 18.09L229.93 18.09Q230.25 18.09 230.73 18.65Q231.21 19.21 231.69 19.21L231.69 19.21Q231.69 18.09 231.37 17.61Q231.05 17.13 230.73 16.65Q230.41 16.17 230.09 15.45Q229.77 14.73 229.77 13.29L229.77 13.29L231.69 13.29Q230.57 13.13 230.57 12.33L230.57 12.33Q230.57 12.01 230.65 11.78Q230.73 11.54 230.73 11.22L230.73 11.22Q230.73 10.74 230.17 10.82Q229.61 10.90 229.61 9.94L229.61 9.94Q229.61 9.14 230.01 8.74Q230.41 8.34 230.41 7.54L230.41 7.54Q230.09 7.86 229.93 7.94Q229.77 8.02 229.61 8.18L229.61 8.18Q229.45 8.34 229.29 8.34L229.29 8.34Q229.13 8.34 229.13 8.18L229.13 8.18Q229.13 7.86 229.53 7.22Q229.93 6.58 229.93 5.78L229.93 5.78Q229.93 4.82 228.33 4.82L228.33 4.82Q228.81 4.02 229.29 3.46Q229.77 2.90 231.05 2.90L231.05 2.90Q231.53 3.70 231.53 3.86L231.53 3.86Q231.53 4.18 231.37 4.26Q231.21 4.34 231.21 4.66L231.21 4.66Q231.21 4.98 231.69 5.46L231.69 5.46Q232.33 5.30 232.25 4.50Q232.17 3.70 232.33 2.90L232.33 2.90Q230.57 2.10 229.93 0.90Q229.29-0.30 229.05-1.98Q228.81-3.66 228.73-5.65Q228.65-7.65 228.33-10.05L228.33-10.05Q229.45-9.41 230.33-9.73Q231.21-10.05 232.33-8.77L232.33-8.77Q232.33-9.57 232.01-10.05Q231.69-10.53 231.69-11.33L231.69-11.33Q230.73-10.69 229.77-10.69L229.77-10.69Q229.77-11.49 229.69-12.05Q229.61-12.61 229.13-12.61ZM274.54-60.10L274.54-60.10Q274.22-59.94 273.74-59.94Q273.26-59.94 273.26-59.46L273.26-59.46Q273.58-59.62 274.06-59.62Q274.54-59.62 274.54-60.10ZM275.18-58.18L275.18-58.18Q276.46-58.18 276.46-58.82L276.46-58.82Q276.46-59.46 275.82-59.46L275.82-59.46Q275.18-59.46 275.18-58.18ZM292.13-47.79L292.13-47.79Q291.81-47.63 291.33-47.63Q290.85-47.63 290.85-47.15L290.85-47.15Q291.17-47.31 291.65-47.31Q292.13-47.31 292.13-47.79ZM290.85-45.87L290.85-45.87Q290.85-43.95 292.13-43.95L292.13-43.95Q292.13-44.91 292.53-45.07Q292.93-45.23 293.41-45.87L293.41-45.87Q292.61-45.87 292.29-45.63Q291.97-45.39 291.65-45.39L291.65-45.39Q291.49-45.39 290.85-45.87ZM248.64-43.31L248.64-43.31Q248.48-42.51 248.48-40.75L248.48-40.75Q248.48-39.47 248.56-38.19Q248.64-36.91 248.64-35.64L248.64-35.64Q248.64-33.72 248.32-32.12Q248.00-30.52 247.20-29.56L247.20-29.56Q248.32-27.96 248.32-26.36L248.32-26.36Q248.32-24.44 247.20-22.36L247.20-22.36Q247.68-22.20 248.08-22.20Q248.48-22.20 248.64-21.72L248.64-21.72Q247.84-20.76 247.84-19.49L247.84-19.49Q247.84-18.05 248.24-16.53Q248.64-15.01 248.64-13.25L248.64-13.25Q249.12-12.93 249.76-12.77Q250.40-12.61 250.40-12.13L250.40-12.13Q250.40-11.81 249.92-11.33L249.92-11.33Q250.24-11.17 250.72-11.17L250.72-11.17Q251.68-11.17 251.76-11.89Q251.84-12.61 253.11-12.61L253.11-12.61Q252.63-12.13 252.63-11.33L252.63-11.33Q252.63-9.89 253.75-9.41L253.75-9.41Q254.07-10.21 254.39-10.21L254.39-10.21Q254.87-10.21 255.35-9.49Q255.83-8.77 256.31-8.77L256.31-8.77Q256.63-10.53 257.35-11.57Q258.07-12.61 260.31-12.61L260.31-12.61Q260.15-11.97 259.67-11.73Q259.19-11.49 259.03-10.69L259.03-10.69Q260.15-11.17 260.95-11.17L260.95-11.17Q262.07-11.17 262.79-10.61Q263.51-10.05 264.79-9.41L264.79-9.41Q265.59-12.13 267.99-13.17Q270.38-14.21 272.62-15.33L272.62-15.33Q272.62-14.21 273.10-14.21L273.10-14.21Q273.58-14.21 273.90-15.01Q274.22-15.81 274.86-16.93Q275.50-18.05 276.30-19.17Q277.10-20.28 278.54-21.08L278.54-21.08Q278.38-21.40 278.38-22.04L278.38-22.04Q278.38-24.12 279.10-25.32Q279.82-26.52 279.82-29.56L279.82-29.56Q279.18-32.28 277.98-34.36Q276.78-36.43 275.82-38.67L275.82-38.67Q274.86-39.31 273.58-40.11Q272.30-40.91 271.26-41.63Q270.22-42.35 269.50-42.83Q268.78-43.31 268.78-43.31L268.78-43.31Q269.10-43.31 269.10-43.63L269.10-43.63Q269.10-43.79 268.78-43.95L268.78-43.95Q267.03-43.47 265.19-43.31Q263.35-43.15 261.43-43.15L261.43-43.15Q259.03-43.15 256.55-43.31Q254.07-43.47 251.84-43.47L251.84-43.47Q251.04-43.47 250.24-43.47Q249.44-43.47 248.64-43.31ZM244.00-27.00L244.00-27.00Q244.80-26.84 245.04-26.36Q245.28-25.88 245.92-25.72L245.92-25.72Q245.44-26.68 245.44-27.32L245.44-27.32Q245.44-28.12 245.68-28.68Q245.92-29.24 245.92-29.72L245.92-29.72Q245.92-30.68 244.64-31.48L244.64-31.48Q244.64-29.88 244.32-29.24Q244.00-28.60 244.00-27.00ZM229.77-2.22L229.77-2.22Q230.73-2.22 230.97-1.66Q231.21-1.10 231.21-0.46Q231.21 0.18 231.21 0.74Q231.21 1.30 231.53 1.30L231.53 1.30Q232.01 1.30 232.33 0.98L232.33 0.98Q232.01 0.82 232.01 0.02L232.01 0.02Q232.01-0.94 232.49-2.46Q232.97-3.98 232.97-5.25L232.97-5.25Q232.97-7.33 231.05-7.49L231.05-7.49Q230.89-5.89 230.57-4.69Q230.25-3.50 229.77-2.22ZM291.49 15.21L291.49 15.21Q291.81 14.89 291.81 14.25L291.81 14.25Q291.81 13.45 290.85 12.65L290.85 12.65Q290.85 13.45 290.85 14.33Q290.85 15.21 291.49 15.21ZM298.69 34.08L298.69 34.08Q298.21 34.08 298.05 33.76Q297.89 33.44 297.89 33.04Q297.89 32.64 297.81 32.32Q297.73 32.00 297.25 32.00L297.25 32.00Q296.45 32.00 296.45 32.80L296.45 32.80Q296.45 33.60 296.93 34.16Q297.41 34.72 297.89 34.72L297.89 34.72Q298.53 34.72 298.69 34.08ZM292.77 49.75L292.77 49.75Q292.77 48.95 292.93 48.55Q293.09 48.15 293.41 47.83L293.41 47.83Q292.77 47.83 292.53 47.51Q292.29 47.19 291.49 47.19L291.49 47.19Q291.49 48.95 292.77 49.75ZM297.41 40.00L297.41 40.00Q297.57 39.52 297.73 39.52L297.73 39.52Q298.05 39.52 298.61 40.40Q299.17 41.28 299.97 41.28L299.97 41.28Q299.33 42.24 299.33 43.20L299.33 43.20Q298.53 43.04 297.97 42.32Q297.41 41.60 297.41 41.44L297.41 41.44Q297.41 40.80 298.05 40.64L298.05 40.64Q298.05 40.00 297.41 40.00Z"/></g></svg>
