<?xml version="1.0" encoding="UTF-8" standalone="no" ?>
<!DOCTYPE svg PUBLIC "-//W3C//DTD SVG 1.1//EN" "http://www.w3.org/Graphics/SVG/1.1/DTD/svg11.dtd">
<svg xmlns="http://www.w3.org/2000/svg" xmlns:xlink="http://www.w3.org/1999/xlink" version="1.1" width="500" height="500" viewBox="0 0 500 500" xml:space="preserve">
<desc>Created with Fabric.js 3.6.3</desc>
<defs>
</defs>
<rect x="0" y="0" width="100%" height="100%" fill="#046380"></rect>
<g transform="matrix(0.5 0 0 0.5 250.71 327.528)" style=""  ><path fill="#ffffff" opacity="1" d="M-281.17 32.42L-304.90 32.42L-304.90 29.84L-296.65 28.08L-296.65-31.36L-304.90-33.11L-304.90-35.69L-284.26-35.69Q-272.09-35.69-264.71-31.26Q-257.33-26.82-257.33-17.22L-257.33-17.22Q-257.33-11.54-260.89-7.16Q-264.45-2.77-270.80-0.19Q-277.14 2.39-285.61 2.39L-285.61 2.39L-290.46 2.39L-290.46 28.08L-281.17 29.84L-281.17 32.42ZM-283.44-32.08L-290.46-32.08L-290.46-1.22L-282.72-1.22Q-277.35-1.22-273.17-3.13Q-268.99-5.04-266.62-8.50Q-264.24-11.96-264.24-16.39L-264.24-16.39Q-264.24-24.65-269.46-28.37Q-274.67-32.08-283.44-32.08L-283.44-32.08Z"/><path fill="#ffffff" opacity="1" d="M-225.85 32.42L-245.25 32.42L-245.25 29.84L-238.13 28.29L-238.13-21.24L-245.25-22.79L-245.25-25.37L-227.30-25.37Q-217.91-25.37-212.49-21.55Q-207.07-17.74-207.07-11.13L-207.07-11.13Q-207.07-5.76-210.48-2.10Q-213.88 1.56-219.45 3.42L-219.45 3.42L-202.32 28.70L-196.44 29.84L-196.44 32.42L-206.97 32.42L-224.72 4.97L-232.66 4.97L-232.66 28.19L-225.85 29.84L-225.85 32.42ZM-226.58-21.97L-226.58-21.97L-232.66-21.97L-232.66 1.56L-226.06 1.56Q-219.87 1.56-216.46-1.69Q-213.06-4.94-213.06-10.00L-213.06-10.00Q-213.06-15.47-216.51-18.72Q-219.97-21.97-226.58-21.97Z"/><path fill="#ffffff" opacity="1" d="M-161.77 33.45L-161.77 33.45Q-169.82 33.45-176.16 29.58Q-182.51 25.71-186.12 18.95Q-189.73 12.19-189.73 3.52L-189.73 3.52Q-189.73-5.15-186.12-11.96Q-182.51-18.77-176.16-22.64Q-169.82-26.51-161.77-26.51L-161.77-26.51Q-153.72-26.51-147.37-22.64Q-141.02-18.77-137.36-11.96Q-133.70-5.15-133.70 3.52L-133.70 3.52Q-133.70 12.19-137.36 18.95Q-141.02 25.71-147.37 29.58Q-153.72 33.45-161.77 33.45ZM-159.91 29.84L-159.91 29.84Q-153.82 29.84-149.12 26.95Q-144.43 24.06-141.85 18.75Q-139.27 13.43-139.27 6.21L-139.27 6.21Q-139.27-2.67-142.47-9.22Q-145.67-15.78-151.08-19.39Q-156.50-23.00-163.31-23.00L-163.31-23.00Q-169.51-23.00-174.25-20.11Q-179.00-17.22-181.68-11.91Q-184.37-6.59-184.37 0.63L-184.37 0.63Q-184.37 9.51-181.06 16.06Q-177.76 22.62-172.24 26.23Q-166.72 29.84-159.91 29.84Z"/><path fill="#ffffff" opacity="1" d="M-98.81 32.42L-119.76 32.42L-119.76 29.84L-112.64 28.29L-112.64-21.24L-119.56-22.79L-119.56-25.37L-79.21-25.37L-79.21-11.13L-81.37-11.13L-84.78-21.97L-107.17-21.97L-107.17 0.84L-90.66 0.84L-88.80-6.38L-86.74-6.38L-86.74 11.16L-88.80 11.16L-90.66 4.14L-107.17 4.14L-107.17 28.29L-98.81 29.84L-98.81 32.42Z"/><path fill="#ffffff" opacity="1" d="M-22.34 32.42L-65.27 32.42L-65.27 29.84L-58.26 28.29L-58.26-21.24L-65.27-22.79L-65.27-25.37L-24.82-25.37L-24.82-11.13L-26.99-11.13L-30.39-21.97L-52.79-21.97L-52.79 0.84L-36.27 0.84L-34.31-6.38L-32.25-6.38L-32.25 11.16L-34.31 11.16L-36.27 4.14L-52.79 4.14L-52.79 29.01L-27.92 29.01L-24.41 17.35L-22.34 17.35L-22.34 32.42Z"/><path fill="#ffffff" opacity="1" d="M9.03 33.45L9.03 33.45Q3.66 33.45-0.10 32.42Q-3.87 31.39-8.00 29.43L-8.00 29.43L-8.93 15.91L-6.86 15.91L-1.81 26.95Q1.19 29.01 3.97 29.68Q6.76 30.36 9.65 30.36L9.65 30.36Q15.63 30.36 18.73 27.36Q21.83 24.37 21.83 18.90L21.83 18.90Q21.83 14.77 19.76 12.40Q17.70 10.02 13.98 8.22Q10.27 6.41 5.21 3.94L5.21 3.94Q-0.67 1.05-3.72-2.05Q-6.76-5.15-6.76-11.03L-6.76-11.03Q-6.76-14.74-4.44-18.20Q-2.12-21.66 1.70-23.93Q5.52-26.20 9.96-26.20L9.96-26.20Q13.88-26.20 17.08-25.17Q20.28-24.13 23.79-22.48L23.79-22.48L24.72-9.38L22.55-9.38L18.73-19.80Q16.56-21.55 14.50-22.38Q12.44-23.21 9.86-23.21L9.86-23.21Q4.18-23.21 1.24-20.26Q-1.70-17.32-1.70-13.09L-1.70-13.09Q-1.70-8.04 1.50-5.30Q4.70-2.57 11.30 0.63L11.30 0.63Q16.67 3.11 20.18 5.43Q23.68 7.75 25.34 10.70Q26.99 13.64 26.99 18.07L26.99 18.07Q26.99 22.51 24.46 25.97Q21.93 29.43 17.85 31.44Q13.78 33.45 9.03 33.45Z"/><path fill="#ffffff" opacity="1" d="M56.81 33.45L56.81 33.45Q51.45 33.45 47.68 32.42Q43.91 31.39 39.78 29.43L39.78 29.43L38.85 15.91L40.92 15.91L45.98 26.95Q48.97 29.01 51.75 29.68Q54.54 30.36 57.43 30.36L57.43 30.36Q63.42 30.36 66.51 27.36Q69.61 24.37 69.61 18.90L69.61 18.90Q69.61 14.77 67.54 12.40Q65.48 10.02 61.77 8.22Q58.05 6.41 52.99 3.94L52.99 3.94Q47.11 1.05 44.07-2.05Q41.02-5.15 41.02-11.03L41.02-11.03Q41.02-14.74 43.34-18.20Q45.67-21.66 49.48-23.93Q53.30-26.20 57.74-26.20L57.74-26.20Q61.66-26.20 64.86-25.17Q68.06-24.13 71.57-22.48L71.57-22.48L72.50-9.38L70.33-9.38L66.51-19.80Q64.35-21.55 62.28-22.38Q60.22-23.21 57.64-23.21L57.64-23.21Q51.96-23.21 49.02-20.26Q46.08-17.32 46.08-13.09L46.08-13.09Q46.08-8.04 49.28-5.30Q52.48-2.57 59.08 0.63L59.08 0.63Q64.45 3.11 67.96 5.43Q71.47 7.75 73.12 10.70Q74.77 13.64 74.77 18.07L74.77 18.07Q74.77 22.51 72.24 25.97Q69.71 29.43 65.64 31.44Q61.56 33.45 56.81 33.45Z"/><path fill="#ffffff" opacity="1" d="M116.67 33.45L116.67 33.45Q108.62 33.45 102.27 29.58Q95.92 25.71 92.31 18.95Q88.70 12.19 88.70 3.52L88.70 3.52Q88.70-5.15 92.31-11.96Q95.92-18.77 102.27-22.64Q108.62-26.51 116.67-26.51L116.67-26.51Q124.72-26.51 131.06-22.64Q137.41-18.77 141.07-11.96Q144.74-5.15 144.74 3.52L144.74 3.52Q144.74 12.19 141.07 18.95Q137.41 25.71 131.06 29.58Q124.72 33.45 116.67 33.45ZM118.53 29.84L118.53 29.84Q124.61 29.84 129.31 26.95Q134.01 24.06 136.59 18.75Q139.17 13.43 139.17 6.21L139.17 6.21Q139.17-2.67 135.97-9.22Q132.77-15.78 127.35-19.39Q121.93-23.00 115.12-23.00L115.12-23.00Q108.93-23.00 104.18-20.11Q99.43-17.22 96.75-11.91Q94.07-6.59 94.07 0.63L94.07 0.63Q94.07 9.51 97.37 16.06Q100.67 22.62 106.19 26.23Q111.71 29.84 118.53 29.84Z"/><path fill="#ffffff" opacity="1" d="M178.07 32.42L158.67 32.42L158.67 29.84L165.79 28.29L165.79-21.24L158.67-22.79L158.67-25.37L176.63-25.37Q186.02-25.37 191.44-21.55Q196.85-17.74 196.85-11.13L196.85-11.13Q196.85-5.76 193.45-2.10Q190.04 1.56 184.47 3.42L184.47 3.42L201.60 28.70L207.48 29.84L207.48 32.42L196.96 32.42L179.21 4.97L171.26 4.97L171.26 28.19L178.07 29.84L178.07 32.42ZM177.35-21.97L177.35-21.97L171.26-21.97L171.26 1.56L177.87 1.56Q184.06 1.56 187.46-1.69Q190.87-4.94 190.87-10.00L190.87-10.00Q190.87-15.47 187.41-18.72Q183.95-21.97 177.35-21.97Z"/><path fill="#ffffff" opacity="1" d="M256.61 32.42L213.68 32.42L213.68 29.84L220.69 28.29L220.69-21.24L213.68-22.79L213.68-25.37L254.13-25.37L254.13-11.13L251.96-11.13L248.56-21.97L226.16-21.97L226.16 0.84L242.67 0.84L244.64-6.38L246.70-6.38L246.70 11.16L244.64 11.16L242.67 4.14L226.16 4.14L226.16 29.01L251.03 29.01L254.54 17.35L256.61 17.35L256.61 32.42Z"/><path fill="#ffffff" opacity="1" d="M287.98 33.45L287.98 33.45Q282.61 33.45 278.85 32.42Q275.08 31.39 270.95 29.43L270.95 29.43L270.02 15.91L272.09 15.91L277.14 26.95Q280.14 29.01 282.92 29.68Q285.71 30.36 288.60 30.36L288.60 30.36Q294.58 30.36 297.68 27.36Q300.78 24.37 300.78 18.90L300.78 18.90Q300.78 14.77 298.71 12.40Q296.65 10.02 292.93 8.22Q289.22 6.41 284.16 3.94L284.16 3.94Q278.28 1.05 275.23-2.05Q272.19-5.15 272.19-11.03L272.19-11.03Q272.19-14.74 274.51-18.20Q276.83-21.66 280.65-23.93Q284.47-26.20 288.91-26.20L288.91-26.20Q292.83-26.20 296.03-25.17Q299.23-24.13 302.74-22.48L302.74-22.48L303.67-9.38L301.50-9.38L297.68-19.80Q295.51-21.55 293.45-22.38Q291.39-23.21 288.81-23.21L288.81-23.21Q283.13-23.21 280.19-20.26Q277.25-17.32 277.25-13.09L277.25-13.09Q277.25-8.04 280.45-5.30Q283.65-2.57 290.25 0.63L290.25 0.63Q295.62 3.11 299.13 5.43Q302.63 7.75 304.29 10.70Q305.94 13.64 305.94 18.07L305.94 18.07Q305.94 22.51 303.41 25.97Q300.88 29.43 296.80 31.44Q292.73 33.45 287.98 33.45Z"/></g><g transform="matrix(1.6373135571313935 0 0 1.6373135571313935 254.5 196.06505214429865)"  >
<path style="stroke: none; stroke-width: 0; stroke-dasharray: none; stroke-linecap: butt; stroke-dashoffset: 0; stroke-linejoin: miter; stroke-miterlimit: 4; fill: rgb(255,255,255); fill-rule: nonzero; opacity: 1;"  transform=" translate(-47.50199994278696, -47.4997350674862)" d="M 57.878 55.6 a 1.267 1.267 0 0 1 1.73 -0.464 l 1.215 0.7 a 1.267 1.267 0 0 1 -1.266 2.194 l -1.215 -0.7 A 1.267 1.267 0 0 1 57.878 55.6 Z m 5.84 -7.581 a 1.268 1.268 0 0 0 1.73 -0.464 l 1.273 -2.2 a 1.266 1.266 0 0 0 -2.193 -1.267 l -1.274 2.2 A 1.268 1.268 0 0 0 63.718 48.017 Z m -3.476 6.021 a 1.268 1.268 0 0 0 1.73 -0.464 l 1.5 -2.6 a 1.266 1.266 0 1 0 -2.193 -1.267 l -1.5 2.6 A 1.268 1.268 0 0 0 60.242 54.038 Z m 26 36.2 v 2.5 A 1.267 1.267 0 0 1 84.971 94 H 34.953 a 1.266 1.266 0 0 1 -1.266 -1.267 v -2.5 a 3.252 3.252 0 0 1 3.249 -3.248 H 43.21 V 84.432 H 10.029 a 1.266 1.266 0 0 1 -1.267 -1.266 V 18.181 a 1.266 1.266 0 0 1 1.572 -1.229 l 8.28 2.058 V 8.607 a 1.266 1.266 0 0 1 0.819 -1.185 l 16.779 -6.34 a 1.268 1.268 0 0 1 0.9 0 l 16.78 6.34 a 1.266 1.266 0 0 1 0.819 1.185 V 33.624 l 5.874 -1.461 a 1.267 1.267 0 0 1 1.572 1.229 v 5.273 a 3.5 3.5 0 0 1 4.6 -1.012 l 0.015 0.008 l 0.788 -1.365 l -0.812 -0.468 a 2.548 2.548 0 0 1 -0.931 -3.477 l 0.86 -1.492 a 2.548 2.548 0 0 1 3.477 -0.931 l 9.1 5.253 a 2.548 2.548 0 0 1 0.931 3.477 l -0.86 1.491 a 2.551 2.551 0 0 1 -2.209 1.272 a 2.524 2.524 0 0 1 -1.268 -0.341 l -0.812 -0.469 l -0.788 1.366 l 0.014 0.008 a 3.5 3.5 0 0 1 1.278 4.767 l -2.839 4.917 a 5.409 5.409 0 0 1 0.987 6.656 l 0.154 0.38 l 3.373 -0.718 a 5.268 5.268 0 0 1 4.031 0.779 a 5.488 5.488 0 0 1 2.348 3.509 L 84.656 67.8 a 11.087 11.087 0 0 1 -7.643 12.68 a 6.635 6.635 0 0 1 2.818 5.426 a 6.718 6.718 0 0 1 -0.088 1.084 h 3.246 A 3.252 3.252 0 0 1 86.238 90.237 Z M 77.3 85.905 a 4.109 4.109 0 1 0 -8.072 1.084 h 7.927 A 4.089 4.089 0 0 0 77.3 85.905 Z M 40.608 75.016 a 0.726 0.726 0 0 0 -0.716 0.716 v 1.23 H 63.333 v -1.23 a 0.726 0.726 0 0 0 -0.715 -0.716 Z M 53.64 66.325 l 2.338 1.349 l 0.518 -0.9 l -2.338 -1.349 Z m 6.188 -2.335 l -4.922 -2.842 l -0.774 1.339 l 4.923 2.842 Z m 2.325 8.493 h 0.465 a 3.249 3.249 0 0 1 3.239 3.077 l 8.719 -1.691 a 4.067 4.067 0 0 0 3.2 -4.735 L 77 65.168 l -4.18 0.81 a 3.488 3.488 0 0 1 -4.412 -1.984 l -1.17 -2.885 l -1.357 2.349 A 3.491 3.491 0 0 1 62.858 65.2 a 3.439 3.439 0 0 1 -0.7 -0.074 Z m 6.83 -19.753 a 2.89 2.89 0 1 0 2.889 2.889 A 2.892 2.892 0 0 0 68.983 52.73 Z m 2.757 7.556 a 5.38 5.38 0 0 1 -1.825 0.674 l 0.844 2.082 a 0.973 0.973 0 0 0 1.8 -0.732 Z m -26 26.7 H 57.482 V 79.5 H 45.743 Z m 14.272 0 h 6.621 a 6.718 6.718 0 0 1 -0.088 -1.084 a 6.6 6.6 0 0 1 1.023 -3.536 l -5.445 1.056 a 1.266 1.266 0 0 1 -1.239 1.007 h -0.872 Z M 74.8 61.089 l 0.109 0.269 a 3.482 3.482 0 0 1 0.243 1.589 l 2.613 -0.507 a 1.268 1.268 0 0 1 1.485 1 l 1.01 5.21 a 6.6 6.6 0 0 1 -5.2 7.7 l -9.192 1.782 v 0.09 A 1.266 1.266 0 0 1 64.6 79.5 H 60.015 v 1.759 l 15.414 -2.989 a 8.545 8.545 0 0 0 6.74 -9.983 L 81.1 62.757 a 2.941 2.941 0 0 0 -1.26 -1.879 a 2.751 2.751 0 0 0 -2.1 -0.413 Z M 68 33.617 l 9.1 5.27 h 0 l 0.876 -1.5 l -9.1 -5.269 Z m 0.956 5.311 l 3.087 1.782 l 0.788 -1.365 l -3.087 -1.782 Z M 54.531 56.9 a 0.964 0.964 0 0 0 0.35 1.307 l 7.5 4.332 a 0.958 0.958 0 0 0 1.307 -0.35 l 1.538 -2.664 a 5.419 5.419 0 0 1 5.262 -9.115 l 2.845 -4.927 a 0.962 0.962 0 0 0 -0.35 -1.306 l -7.5 -4.333 a 0.959 0.959 0 0 0 -1.307 0.35 Z m 5.089 -21.89 L 44.593 38.748 V 72.483 H 59.62 V 67.821 a 2.5 2.5 0 0 1 -0.549 0.063 a 2.378 2.378 0 0 1 -0.28 -0.017 l -0.856 1.484 a 2.063 2.063 0 0 1 -2.814 0.754 l -3.158 -1.823 a 2.063 2.063 0 0 1 -0.754 -2.814 l 0.857 -1.484 a 2.477 2.477 0 0 1 -0.158 -2.711 l 0.884 -1.53 a 3.5 3.5 0 0 1 -0.454 -4.107 l 0.931 -1.613 a 1.266 1.266 0 0 1 0.348 -2.483 H 54.7 l 4.918 -8.518 Z M 52.174 9.482 L 37.927 4.1 V 23.812 l 5.7 1.418 a 1.266 1.266 0 0 1 0.961 1.229 v 9.679 l 7.581 -1.885 Z M 21.147 19.64 l 14.247 3.542 V 4.1 L 21.147 9.482 Z M 30.49 68.317 H 22.865 V 81.9 H 30.49 Z M 42.06 81.9 V 79.5 H 38.625 a 1.266 1.266 0 0 1 -1.266 -1.267 v -2.5 a 3.253 3.253 0 0 1 3.249 -3.249 H 42.06 V 27.449 L 11.3 19.8 V 81.9 h 9.037 V 67.051 A 1.266 1.266 0 0 1 21.6 65.784 H 31.757 a 1.267 1.267 0 0 1 1.267 1.267 V 81.9 Z m 41.645 8.338 a 0.726 0.726 0 0 0 -0.716 -0.715 H 36.936 a 0.726 0.726 0 0 0 -0.716 0.715 v 1.23 H 83.705 Z M 53.617 47.782 h 1.788 a 1.267 1.267 0 0 0 0 -2.534 H 53.617 a 1.267 1.267 0 0 0 0 2.534 Z m -6.686 0 h 1.788 a 1.267 1.267 0 0 0 0 -2.534 H 46.931 a 1.267 1.267 0 0 0 0 2.534 Z m 0 6.291 h 1.788 a 1.267 1.267 0 0 0 0 -2.533 H 46.931 a 1.267 1.267 0 0 0 0 2.533 Z m 0 6.292 h 1.788 a 1.267 1.267 0 0 0 0 -2.533 H 46.931 a 1.267 1.267 0 0 0 0 2.533 Z m 1.788 3.759 H 46.931 a 1.267 1.267 0 0 0 0 2.533 h 1.788 a 1.267 1.267 0 0 0 0 -2.533 Z M 20.873 34.048 H 17.186 a 1.267 1.267 0 1 0 0 2.533 h 3.687 a 1.267 1.267 0 1 0 0 -2.533 Z m 0 8.214 H 17.186 a 1.267 1.267 0 1 0 0 2.533 h 3.687 a 1.267 1.267 0 1 0 0 -2.533 Z m 0 8.214 H 17.186 a 1.267 1.267 0 0 0 0 2.534 h 3.687 a 1.267 1.267 0 0 0 0 -2.534 Z m 0 8.215 H 17.186 a 1.267 1.267 0 1 0 0 2.533 h 3.687 a 1.267 1.267 0 1 0 0 -2.533 Z m 7.376 -24.643 H 24.561 a 1.267 1.267 0 0 0 0 2.533 h 3.688 a 1.267 1.267 0 0 0 0 -2.533 Z m 0 8.214 H 24.561 a 1.267 1.267 0 0 0 0 2.533 h 3.688 a 1.267 1.267 0 0 0 0 -2.533 Z m 0 8.214 H 24.561 a 1.267 1.267 0 0 0 0 2.534 h 3.688 a 1.267 1.267 0 0 0 0 -2.534 Z m 0 8.215 H 24.561 a 1.267 1.267 0 0 0 0 2.533 h 3.688 a 1.267 1.267 0 0 0 0 -2.533 Z m 7.375 -24.643 H 31.937 a 1.267 1.267 0 1 0 0 2.533 h 3.687 a 1.267 1.267 0 1 0 0 -2.533 Z m 0 8.214 H 31.937 a 1.267 1.267 0 1 0 0 2.533 h 3.687 a 1.267 1.267 0 1 0 0 -2.533 Z m 0 8.214 H 31.937 a 1.267 1.267 0 0 0 0 2.534 h 3.687 a 1.267 1.267 0 0 0 0 -2.534 Z m 0 8.215 H 31.937 a 1.267 1.267 0 1 0 0 2.533 h 3.687 a 1.267 1.267 0 1 0 0 -2.533 Z" stroke-linecap="round" />
</g>
</svg>